<svg xmlns="http://www.w3.org/2000/svg" width="685" height="422" fill="none" viewBox="0 0 685 422"><path fill="url(#a)" d="M629.27 49.91H97.03c-15.46 0-28 12.54-28 28V391.6c0 15.46 12.54 28 28 28h532.24c15.46 0 28-12.54 28-28V77.91c0-15.46-12.54-28-28-28"/><path fill="#efefef" stroke="#efefef" stroke-opacity=".94" stroke-width="4" d="M573.21 77.09h-40.77c-6.4 0-11.59 5.19-11.59 11.59s5.19 11.59 11.59 11.59h40.77c6.4 0 11.58-5.19 11.58-11.59s-5.18-11.59-11.58-11.59ZM487.14 77.09h-40.76c-6.4 0-11.59 5.19-11.59 11.59s5.19 11.59 11.59 11.59h40.76c6.4 0 11.59-5.19 11.59-11.59s-5.19-11.59-11.59-11.59ZM412.67 88.68c0-6.4-5.19-11.59-11.59-11.59s-11.58 5.19-11.58 11.59 5.18 11.59 11.58 11.59 11.59-5.19 11.59-11.59Z"/><path fill="#efefef" fill-opacity=".75" d="M142.55 292.31h79.06v28.96h33.3v-28.96h20.42v-27.9h-20.42V156.56h-43.59l-68.77 108.33zm79.7-27.9h-44.63v-1.29l43.35-68.6h1.28zm140.87 60.48c41.42 0 66.43-31.53 66.51-85.82.08-53.88-25.25-84.76-66.51-84.76-41.34 0-66.43 30.8-66.51 84.76-.16 54.13 25.01 85.74 66.51 85.82m0-28.88c-18.9 0-31.13-18.98-31.05-56.94.08-37.39 12.23-56.21 31.05-56.21 18.74 0 30.96 18.82 30.96 56.21.08 37.96-12.14 56.94-30.96 56.94m88.85-3.7h79.06v28.96h33.29v-28.96h20.43v-27.9h-20.43V156.56h-43.59l-68.76 108.33zm79.7-27.9h-44.64v-1.29l43.35-68.6h1.29z"/><path fill="#efefef" stroke="#efefef" stroke-opacity=".94" stroke-width="4" d="M125.05 86.42c0-5.15-4.18-9.33-9.33-9.33s-9.32 4.18-9.32 9.33c0 5.14 4.17 9.32 9.32 9.32s9.33-4.18 9.33-9.32Z"/><path fill="url(#b)" d="M76.7 298.71c6.53 0 11.83 5.3 11.83 11.84 0 6.53-5.3 11.83-11.83 11.83-6.54 0-11.83-5.3-11.83-11.83 0-6.54 5.29-11.84 11.83-11.84"/><path fill="url(#c)" d="M656.19 136.37c8.43-3.56 18.15.39 21.71 8.82s-.39 18.15-8.82 21.71-18.15-.39-21.71-8.82.39-18.15 8.82-21.71"/><path fill="#efefef" fill-opacity=".94" d="M356.81 100.92c-6.82 0-12.35-5.53-12.35-12.35s5.53-12.35 12.35-12.35 12.35 5.53 12.35 12.35-5.53 12.35-12.35 12.35"/><path fill="url(#d)" d="M209.16 59.27c9.08 0 16.43-7.36 16.43-16.44 0-9.07-7.35-16.43-16.43-16.43s-16.44 7.36-16.44 16.43c0 9.08 7.36 16.44 16.44 16.44"/><path fill="url(#e)" d="M444.11 341.2c-7.5 0-13.59 6.08-13.59 13.59 0 7.5 6.09 13.59 13.59 13.59 7.51 0 13.59-6.09 13.59-13.59 0-7.51-6.08-13.59-13.59-13.59"/><path fill="#efefef" fill-opacity=".94" d="M192.76 393.36c-6.9 0-12.49-5.59-12.49-12.49s5.59-12.49 12.49-12.49 12.49 5.59 12.49 12.49-5.59 12.49-12.49 12.49M317.77 334.56c4.47 2.58 6.01 8.31 3.42 12.78-2.58 4.48-8.31 6.01-12.78 3.43a9.37 9.37 0 0 1-3.43-12.79c2.58-4.47 8.31-6.01 12.79-3.42M626.46 74.48 609.43 91.5c-.62.62-.62 1.63 0 2.25s1.63.62 2.25 0l17.02-17.03c.62-.62.62-1.62 0-2.24s-1.62-.62-2.24 0M624.79 86.67l-4.91 4.91c-.62.62-.62 1.62 0 2.24s1.63.62 2.25 0l4.91-4.91c.62-.62.62-1.62 0-2.24s-1.63-.62-2.25 0M101.39 375.04l-15.24 15.24a1.43 1.43 0 0 0 0 2.01c.56.55 1.46.55 2.01 0l15.23-15.24a1.4 1.4 0 0 0 0-2v-.01c-.55-.55-1.45-.55-2 0M99.9 385.95l-4.4 4.39a1.43 1.43 0 0 0 0 2.01c.56.56 1.46.56 2.01 0l4.39-4.39c.56-.56.56-1.46 0-2.01a1.4 1.4 0 0 0-2 0M27.56 78.79l29.45-29.45a2.76 2.76 0 0 0 0-3.89 2.746 2.746 0 0 0-3.88 0L23.68 74.9a2.74 2.74 0 0 0 0 3.89 2.746 2.746 0 0 0 3.88 0M30.44 57.7l8.5-8.49a2.746 2.746 0 0 0 0-3.88 2.74 2.74 0 0 0-3.89 0l-8.49 8.49a2.746 2.746 0 0 0 0 3.88 2.746 2.746 0 0 0 3.88 0M612.41 395.57l20.73-20.74c.76-.75.76-1.97 0-2.73-.75-.75-1.98-.75-2.73 0l-20.73 20.73c-.76.76-.76 1.98 0 2.74.75.75 1.97.75 2.73 0M614.44 380.72l5.98-5.98c.75-.75.75-1.98 0-2.73a1.92 1.92 0 0 0-2.73 0l-5.98 5.98a1.92 1.92 0 0 0 0 2.73c.75.76 1.97.76 2.73 0"/><path fill="#efefef" fill-opacity=".94" fill-rule="evenodd" d="M598.43 13.77h3.3c.8 0 1.44.65 1.44 1.44v3.31c0 .8-.65 1.44-1.44 1.44h-3.3c-.79 0-1.44-.65-1.44-1.44v-3.31c0-.18.03-.37.11-.55.07-.17.17-.33.31-.47a1.459 1.459 0 0 1 1.02-.42m11.45 0h3.31c.79 0 1.44.65 1.44 1.44v3.31c0 .8-.65 1.44-1.44 1.44h-3.31c-.79 0-1.44-.65-1.44-1.44v-3.31c0-.79.65-1.44 1.44-1.44m11.47 0h3.3c.79 0 1.44.65 1.44 1.44v3.31c0 .8-.65 1.44-1.44 1.44h-3.3c-.8 0-1.45-.65-1.45-1.44v-3.31c0-.18.04-.37.11-.55.08-.17.18-.33.32-.47.13-.13.29-.24.46-.31.18-.07.37-.11.56-.11m11.45 0h3.31c.79 0 1.44.65 1.44 1.44v3.31c0 .8-.65 1.44-1.44 1.44h-3.31c-.38 0-.75-.15-1.02-.42a1.5 1.5 0 0 1-.43-1.02v-3.31c.01-.38.16-.74.43-1.01a1.5 1.5 0 0 1 1.02-.43m11.46 0h3.3c.8 0 1.45.65 1.45 1.44v3.31c0 .8-.65 1.44-1.45 1.44h-3.3c-.79 0-1.44-.65-1.44-1.44v-3.31c0-.79.65-1.44 1.44-1.44m-33.96 12.5h3.31c.79 0 1.44.64 1.44 1.44v3.31c0 .79-.65 1.44-1.44 1.44h-3.31c-.8 0-1.44-.65-1.44-1.44v-3.31c0-.19.04-.37.11-.55s.18-.34.31-.47c.13-.14.29-.24.47-.32.17-.07.36-.11.55-.1m11.46 0h3.3c.8 0 1.45.64 1.45 1.44v3.31c0 .79-.65 1.44-1.45 1.44h-3.3c-.79 0-1.44-.65-1.44-1.44v-3.31c0-.19.03-.37.1-.55.08-.18.18-.34.32-.47.13-.14.29-.24.47-.32.17-.07.36-.11.55-.1m11.46 0h3.3c.8 0 1.45.64 1.45 1.44v3.31c0 .38-.16.75-.43 1.02s-.64.42-1.02.42h-3.3c-.8 0-1.45-.65-1.45-1.44v-3.31c0-.8.65-1.44 1.45-1.44M621.35.35h3.3c.79 0 1.44.65 1.44 1.45v3.3c0 .8-.65 1.44-1.44 1.44h-3.3c-.8 0-1.45-.65-1.45-1.44V1.8c0-.19.04-.38.11-.56.08-.17.18-.33.32-.47.13-.13.29-.24.46-.31.18-.07.37-.11.56-.11m11.45 0h3.31c.79 0 1.44.65 1.44 1.45v3.3c0 .8-.65 1.44-1.44 1.44h-3.31c-.38 0-.75-.15-1.02-.42a1.5 1.5 0 0 1-.43-1.02V1.8c.01-.39.16-.75.43-1.02a1.5 1.5 0 0 1 1.02-.43M1.66 403.31h3.31c.8 0 1.44.65 1.44 1.44v3.31c0 .8-.65 1.44-1.44 1.44H1.66c-.79 0-1.44-.65-1.44-1.44v-3.31c0-.18.04-.37.11-.55.07-.17.18-.33.31-.47.14-.13.3-.24.47-.31.18-.07.36-.11.55-.11m11.46 0h3.3c.79 0 1.44.65 1.44 1.44v3.31c0 .8-.65 1.44-1.44 1.44h-3.3c-.79 0-1.44-.65-1.44-1.44v-3.31c0-.79.65-1.44 1.44-1.44m11.46 0h3.31c.79 0 1.44.65 1.44 1.44v3.31c0 .8-.65 1.44-1.44 1.44h-3.31c-.79 0-1.44-.65-1.44-1.44v-3.31c0-.18.04-.37.11-.55.07-.17.18-.33.31-.46.13-.14.29-.24.47-.32.17-.07.36-.11.55-.11m11.46 0h3.3c.79 0 1.44.65 1.44 1.44v3.31c0 .8-.65 1.44-1.44 1.44h-3.3c-.39 0-.75-.15-1.03-.42-.27-.27-.42-.64-.42-1.02v-3.31c0-.38.16-.74.43-1.01s.63-.43 1.02-.43m11.45 0h3.31c.8 0 1.45.65 1.45 1.44v3.31c0 .8-.65 1.44-1.45 1.44h-3.31c-.79 0-1.44-.65-1.44-1.44v-3.31c0-.79.65-1.44 1.44-1.44m-33.95 12.5h3.3c.79 0 1.44.64 1.44 1.44v3.31c0 .79-.65 1.44-1.44 1.44h-3.3c-.8 0-1.44-.65-1.44-1.44v-3.31c-.01-.19.03-.37.1-.55.08-.18.18-.34.32-.47.13-.13.29-.24.46-.31.18-.08.37-.11.56-.11m11.45 0h3.31c.79 0 1.44.64 1.44 1.44v3.31c0 .79-.65 1.44-1.44 1.44h-3.31c-.79 0-1.44-.65-1.44-1.44v-3.31c0-.19.04-.37.11-.55s.18-.34.31-.47c.14-.13.29-.24.47-.31.18-.08.36-.11.55-.11m11.46 0h3.3c.8 0 1.45.64 1.45 1.44v3.31c0 .38-.15.75-.42 1.02-.28.27-.64.42-1.03.42h-3.3c-.79 0-1.44-.65-1.44-1.44v-3.31c0-.8.65-1.44 1.44-1.44m-11.87-25.92h3.31c.79 0 1.44.65 1.44 1.45v3.3c0 .8-.65 1.44-1.44 1.44h-3.31c-.79 0-1.44-.65-1.44-1.44v-3.3c0-.19.04-.38.11-.56.07-.17.18-.33.31-.47a1.459 1.459 0 0 1 1.02-.42m11.46 0h3.3c.79 0 1.44.65 1.44 1.45v3.3c0 .8-.65 1.44-1.44 1.44h-3.3c-.39 0-.75-.15-1.03-.42-.27-.27-.42-.64-.42-1.02v-3.3c0-.39.16-.75.43-1.02s.63-.43 1.02-.43" clip-rule="evenodd"/><path fill="url(#f)" fill-rule="evenodd" d="M70.88 236.92c-24.64 0-44.62-20.26-44.62-45.24 0-24.99 19.98-45.25 44.62-45.25s44.62 20.26 44.62 45.25c0 24.98-19.98 45.24-44.62 45.24" clip-rule="evenodd"/><path stroke="#efefef" stroke-linecap="round" stroke-linejoin="round" stroke-width="7.41" d="m88.86 172.48-18.85 20.11-11.32-12.07"/><path stroke="#efefef" stroke-linecap="round" stroke-linejoin="round" stroke-width="7.41" d="m51.18 211.84 18.85-20.11 11.31 12.06"/><defs><linearGradient id="a" x1="69.03" x2="657.27" y1="234.76" y2="234.76" gradientUnits="userSpaceOnUse"><stop stop-color="#2da44a"/><stop offset=".5" stop-color="#3dd6b3"/><stop offset="1" stop-color="#2c7fa3"/></linearGradient><linearGradient id="b" x1="64.87" x2="88.53" y1="310.55" y2="310.55" gradientUnits="userSpaceOnUse"><stop stop-color="#2da44a"/><stop offset="1" stop-color="#2c7fa3"/></linearGradient><linearGradient id="c" x1="647.37" x2="677.9" y1="158.08" y2="145.19" gradientUnits="userSpaceOnUse"><stop stop-color="#2da44a"/><stop offset="1" stop-color="#2c7fa3"/></linearGradient><linearGradient id="d" x1="192.72" x2="225.59" y1="42.83" y2="42.83" gradientUnits="userSpaceOnUse"><stop stop-color="#2da44a"/><stop offset="1" stop-color="#2c7fa3"/></linearGradient><linearGradient id="e" x1="457.7" x2="430.52" y1="354.79" y2="354.79" gradientUnits="userSpaceOnUse"><stop stop-color="#2da44a"/><stop offset="1" stop-color="#2c7fa3"/></linearGradient><linearGradient id="f" x1="26.26" x2="115.5" y1="191.68" y2="191.68" gradientUnits="userSpaceOnUse"><stop stop-color="#2da44a"/><stop offset="1" stop-color="#2c7fa3"/></linearGradient></defs></svg>