<svg xmlns="http://www.w3.org/2000/svg" width="600" height="400" viewBox="0 0 600 400" fill="none"><path d="M416.60 116.96C411.91 125.32 401.66 126.47 385.23 124.88C372.88 123.68 361.61 122.75 349.26 116.02C340.61 111.31 333.76 104.93 328.77 98.74C323.35 92.03 315.80 84.38 319.5 76.77C324.59 66.33 354.03 57.53 382.62 71.92C414.03 87.73 421.18 108.80 416.60 116.96Z" fill="url(#paint0_linear_45_951)"/><path d="M498.16 184.83C489.63 189.07 478.30 183.62 478.30 183.62C478.30 183.62 480.82 171.32 489.35 167.10C497.89 162.86 509.20 168.3 509.20 168.3C509.20 168.3 506.69 180.60 498.16 184.83Z" fill="url(#paint1_linear_45_951)"/><path d="M124.51 169.00C133.24 174.23 145.76 169.40 145.76 169.40C145.76 169.40 144.12 156.08 135.39 150.85C126.66 145.63 114.14 150.45 114.14 150.45C114.14 150.45 115.78 163.77 124.51 169.00Z" fill="url(#paint2_linear_45_951)"/><path d="M447.35 304.03C444.93 304.03 442.97 302.07 442.97 299.65C442.97 297.24 444.93 295.28 447.35 295.28C449.77 295.28 451.73 297.24 451.73 299.65C451.73 302.07 449.77 304.03 447.35 304.03Z" fill="#E1E4E5"/><path d="M111.80 274.59C108.31 274.59 105.48 271.76 105.48 268.27C105.48 264.78 108.31 261.95 111.80 261.95C115.29 261.95 118.13 264.78 118.13 268.27C118.13 271.76 115.29 274.59 111.80 274.59Z" fill="#E1E4E5"/><path d="M489.05 282.35C486.39 282.35 484.23 280.20 484.23 277.54C484.23 274.88 486.39 272.73 489.05 272.73C491.70 272.73 493.86 274.88 493.86 277.54C493.86 280.20 491.70 282.35 489.05 282.35Z" fill="#E1E4E5"/><path d="M396.75 163.47C393.80 163.47 391.4 161.08 391.4 158.12C391.4 155.17 393.80 152.77 396.75 152.77C399.70 152.77 402.1 155.17 402.1 158.12C402.1 161.08 399.70 163.47 396.75 163.47Z" fill="#E1E4E5"/><path d="M88.36 167.64C88.36 170.29 86.21 172.44 83.55 172.44C80.90 172.44 78.75 170.29 78.75 167.64C78.75 164.99 80.90 162.84 83.55 162.84C86.21 162.84 88.36 164.99 88.36 167.64Z" fill="#E1E4E5"/><path d="M250.45 80.68C246.93 80.68 244.06 77.82 244.06 74.29C244.06 70.76 246.93 67.90 250.45 67.90C253.98 67.90 256.85 70.76 256.85 74.29C256.85 77.82 253.98 80.68 250.45 80.68Z" fill="#E1E4E5"/><path d="M434.16 226.33C431.44 226.33 429.24 224.57 429.24 222.40C429.24 220.22 431.44 218.46 434.16 218.46C436.87 218.46 439.07 220.22 439.07 222.40C439.07 224.57 436.87 226.33 434.16 226.33Z" fill="#E1E4E5"/><path d="M369.04 63.45C370.47 68.79 367.31 74.27 361.97 75.70C356.64 77.13 351.16 73.96 349.73 68.63C348.30 63.30 351.46 57.81 356.80 56.38C362.13 54.95 367.62 58.12 369.04 63.45Z" fill="#E1E4E5"/><path d="M148.17 135.20H148.24C148.66 141.08 153.03 141.17 153.03 141.17C153.03 141.17 148.21 141.26 148.21 148.05C148.21 141.26 143.39 141.17 143.39 141.17C143.39 141.17 147.76 141.08 148.17 135.20ZM140.85 289.02H140.92C141.32 294.88 145.51 294.97 145.51 294.97C145.51 294.97 140.89 295.07 140.89 301.84C140.89 295.07 136.26 294.97 136.26 294.97C136.26 294.97 140.45 294.88 140.85 289.02Z" fill="#E1E4E5"/><path fill-rule="evenodd" clip-rule="evenodd" d="M162.15 195.62H207.91C212.00 195.62 213.76 190.30 210.42 187.94L210.28 187.84C205.51 184.55 199.25 184.85 199.25 184.85C199.25 184.85 198.36 167.05 181.53 167.05C166.31 167.05 160.24 182.05 158.05 190.31C157.34 192.99 159.38 195.62 162.15 195.62Z" fill="url(#paint3_linear_45_951)"/><path fill-rule="evenodd" clip-rule="evenodd" d="M79.94 270.59H42.19C38.82 270.59 37.36 266.2 40.12 264.25C40.16 264.23 40.20 264.20 40.24 264.17C44.17 261.46 49.33 261.70 49.33 261.70C49.33 261.70 50.07 247.02 63.96 247.02C76.51 247.02 81.52 259.39 83.32 266.21C83.91 268.42 82.22 270.59 79.94 270.59Z" fill="url(#paint4_linear_45_951)"/><path fill-rule="evenodd" clip-rule="evenodd" d="M413.49 204.18H459.25C463.34 204.18 465.10 198.86 461.76 196.50C461.71 196.47 461.66 196.44 461.61 196.41C456.85 193.12 450.59 193.41 450.59 193.41C450.59 193.41 449.70 175.62 432.87 175.62C417.65 175.62 411.58 190.61 409.39 198.87C408.68 201.56 410.72 204.18 413.49 204.18Z" fill="url(#paint5_linear_45_951)"/><path fill-rule="evenodd" clip-rule="evenodd" d="M132.38 223.90H82.84C78.83 223.90 77.10 218.76 80.39 216.49L80.53 216.39C85.20 213.22 91.33 213.50 91.33 213.50C91.33 213.50 92.21 196.33 108.71 196.33C116.87 196.33 123.46 210.11 123.46 210.11C123.46 210.11 134.56 210.11 136.4 218.77C136.96 221.40 135.09 223.90 132.38 223.90Z" fill="url(#paint6_linear_45_951)"/><path fill-rule="evenodd" clip-rule="evenodd" d="M554.84 251.31H476.56C470.22 251.31 467.49 243.33 472.68 239.79L472.90 239.64C480.28 234.71 489.97 235.16 489.97 235.16C489.97 235.16 491.36 208.47 517.44 208.47C530.33 208.47 540.75 229.89 540.75 229.89C540.75 229.89 558.29 229.89 561.19 243.34C562.07 247.42 559.13 251.31 554.84 251.31Z" fill="url(#paint7_linear_45_951)"/><path d="M194.21 79.35L306.59 328.25M282.47 79.35L394.85 328.25M208.15 108.36H295.77M219.57 133.75H307.20M231.00 159.15H318.63M242.43 184.55H330.05M253.86 209.95H341.48M265.29 235.34H352.91" stroke="#E1E4E5" stroke-width="4.28"/><path d="M390.25 271.62C392.51 273.10 394.31 275.89 395.03 278.47C395.56 280.46 395.86 282.49 396.38 284.48C397.00 286.70 398.39 288.13 399.73 289.97C400.19 290.59 400.65 291.25 401.00 291.96C401.34 292.62 401.26 293.47 402.10 293.34C402.94 293.21 403.20 292.16 403.18 291.45C403.11 289.62 401.96 288.54 401.07 287.15C401.21 287.13 401.33 287.09 401.49 287.04C402.74 288.66 403.61 290.52 404.56 292.33C405.38 293.87 406.41 295.86 407.74 297.03C408.26 297.50 409.03 297.68 409.71 297.55C410.24 297.45 410.76 297.00 410.68 296.49C410.65 296.26 410.50 296.07 410.53 295.85C410.56 295.70 410.66 295.57 410.78 295.45C411.08 295.09 411.36 294.76 411.67 294.41C412.23 293.74 411.48 291.88 411.51 291.00C411.52 290.59 411.62 290.21 411.66 289.83C411.74 289.15 411.73 288.48 411.63 287.83C411.01 283.92 407.5 281.61 404.80 279.15C401.39 276.01 399.00 271.76 398.12 267.20M275.24 155.36C274.95 152.71 274.62 150.04 274.30 147.42C274.02 145.03 273.49 142.59 273.52 140.17C273.55 138.71 273.82 137.26 274.12 135.83C274.29 134.97 274.47 134.11 274.87 133.33C275.45 132.19 277.79 130.22 276.90 128.83C275.16 130.16 273.40 131.44 271.40 132.37C270.83 132.65 270.20 132.90 269.53 132.91C268.75 132.91 267.99 132.53 267.33 132.13C264.99 130.76 262.96 128.91 261.34 126.78C259.77 124.74 258.15 122.77 256.78 120.58C256.68 120.43 256.62 120.30 256.46 120.22C256.2 120.08 255.87 120.25 255.64 120.45C254.92 121.21 255.14 122.44 255.59 123.34C256.01 124.18 257.01 125.36 256.98 126.37C256.93 127.45 255.68 128.15 255.91 129.31C256.01 129.74 256.30 130.08 256.41 130.49C256.7 131.57 255.72 132.58 255.53 133.68C255.30 134.91 256.06 136.13 256.85 137.08C258.63 139.23 260.82 141.03 263.25 142.39C265.11 143.41 265.12 145.89 265.35 148.00C265.59 150.11 265.49 152.22 265.50 154.37C265.50 154.65 265.50 154.99 265.67 155.27C265.80 155.49 265.98 155.63 266.22 155.76C267.78 156.73 269.68 156.95 271.53 157.07C272.16 157.11 272.83 157.15 273.44 156.93C274.07 156.69 275.32 155.99 275.24 155.36Z" fill="#F8AE9D"/><path d="M318.88 152.15C316.77 154.36 316.28 157.47 316.88 160.50C317.37 163.04 318.80 165.40 320.87 166.91C321.17 167.12 321.51 167.33 321.90 167.37C322.86 167.41 323.35 166.28 323.61 165.35C324.04 163.85 324.04 162.50 324.28 161.03C324.53 159.56 325.58 158.34 325.53 156.82C325.47 155.38 326.23 151.15 325.10 150.16C323.71 148.95 320.49 150.72 319.39 151.66C319.22 151.78 319.06 151.95 318.88 152.15Z" fill="#25432D"/><path d="M339.41 143.44C339.41 143.44 348.65 142.93 349.36 159.56C350.14 178.04 357.7 175.81 367.63 191.81C373.44 201.15 364.76 215.66 350.42 213.84C336.09 212.02 323.56 206.41 315.10 207.35C306.65 208.29 308.48 186.64 317.34 180.83C326.19 175.03 310.83 154.04 322.33 146.64C333.82 139.23 339.41 143.44 339.41 143.44Z" fill="#25432D"/><path d="M316.93 170.99C316.90 172.16 316.90 173.34 316.92 174.52C317.00 176.56 320.39 177.33 321.88 177.84C322.58 178.06 323.28 178.28 324.00 178.43C324.29 178.48 325.40 178.43 325.59 178.56C326.42 179.13 326.62 187.06 327.08 187.06C331.31 187.17 335.47 188.10 339.34 189.80C338.41 180.60 342.09 171.07 339.43 162.21C338.32 158.52 336.12 155.19 333.20 152.70C331.30 151.06 327.16 148.59 324.69 150.29C323.94 150.82 323.39 151.57 322.91 152.34C319.39 157.86 317.18 164.41 316.93 170.99Z" fill="#F8AE9D"/><path d="M387.70 221.96C388.73 220.29 388.90 218.26 388.79 216.33C388.32 208.04 383.33 200.63 377.31 194.95C371.28 189.26 364.14 184.90 357.71 179.68C356.04 178.33 354.38 176.88 352.39 176.03C350.40 175.19 348 175 346.16 176.15C344.86 176.95 344.02 178.32 343.46 179.72C342.24 182.77 342.23 186.15 342.43 189.40C342.68 193.51 343.25 197.61 344.48 201.49C345.47 204.61 347.26 207.91 350.39 208.84C350.93 212.51 352.48 216.06 354.87 218.90C357.61 222.16 361.27 224.49 365.13 226.26C368.69 227.89 372.65 229.13 376.49 228.36C378.76 227.92 380.84 226.83 382.88 225.71C384.69 224.76 386.58 223.72 387.70 221.96ZM354.89 213.00L353.08 209.30C353.54 209.40 353.96 209.54 354.39 209.76C355.53 210.41 356.05 212.37 354.89 213.00Z" fill="#25432D"/><path d="M327.46 186.63C323.58 186.97 320.76 190.45 316.88 190.68C311.94 190.96 306.50 189.72 301.56 189.26C297.54 188.89 293.08 188.28 290.54 185.15C290.24 184.77 289.96 184.36 289.52 184.17C289.04 183.95 287.87 183.80 287.61 183.34C284.82 178.42 282.57 173.20 280.88 167.83C280.35 166.12 275.60 151.25 275.87 151.16C273.88 151.71 271.86 152.12 269.82 152.37C267.19 152.70 264.71 154.79 264.67 157.43C264.62 160.90 264.60 164.39 264.9 167.82C265.72 177.11 268.98 186.24 274.54 193.71C280.28 201.39 288.63 206.81 297.7 210.36C303.57 212.65 307.7 218.88 310.67 224.44C313.40 229.52 316.47 233.23 317.37 239.08C318.16 244.27 317.82 249.67 316.33 254.72C316.19 255.20 316.03 255.70 316.06 256.22C316.09 256.57 316.17 256.92 316.32 257.23C317.17 259.34 319.01 260.84 320.80 262.22C328.80 268.45 338.95 273.41 348.67 276.44C359.57 279.79 367.06 265.02 364.02 254.02C361.74 245.72 355.98 238.85 354.65 230.31C354.25 227.76 356.88 227.49 358.81 229.21C364.00 233.81 371.53 236.16 375.95 241.76C379.53 246.30 380.47 252.31 382.20 257.81C383.35 261.49 384.92 265.05 386.93 268.34C388.60 271.07 391.73 272.81 394.81 271.95C398.69 270.87 399.75 266.39 398.63 262.53C396.78 256.19 394.74 249.97 393.09 243.52C392.52 241.29 391.93 239.00 390.62 237.11C389.11 234.94 386.82 233.44 384.77 231.78C379.49 227.49 375.71 221.64 371.41 216.33C366.01 209.64 359.75 203.69 352.78 198.66C350.09 196.7 347.27 194.85 344.45 193.06C342.43 191.75 340.40 190.43 338.39 189.10C337.57 188.58 336.77 188.04 335.87 187.63C333.13 186.47 330.45 186.37 327.46 186.63Z" fill="url(#paint8_linear_45_951)"/><path fill-rule="evenodd" clip-rule="evenodd" d="M499.72 347.7C535.73 347.7 518.88 298.05 473.26 309.90C470.74 240.96 341.51 190.51 288.08 283.50C272.97 273.11 239.04 292.75 246.56 309.90C229.77 311.15 216.57 312.84 206.30 315.07C182.58 320.24 187.28 347.47 211.72 347.28L499.72 347.7Z" fill="#E1E4E5" stroke="#E1E4E5" stroke-width="4.28"/><path fill-rule="evenodd" clip-rule="evenodd" d="M112.70 349.42H373.08C397.53 349.42 396.40 329.14 388.42 322.08C380.24 314.83 364.07 317.77 364.07 317.77C364.07 317.77 359.26 304.13 343.41 297.49C329.40 291.61 314.71 294.41 314.71 294.41C314.71 294.41 314.71 285.05 305.74 277.29C296.77 269.54 284.80 270.29 284.80 270.29C284.80 270.29 276.58 218.67 221.61 218.67C166.65 218.67 160.29 267.28 160.29 267.28C160.29 267.28 147.96 267.28 138.98 275.57C130.01 283.86 128.88 293.28 128.88 293.28C128.88 293.28 98.87 289.20 90.00 315.29C84.71 330.84 95.58 349.42 112.70 349.42Z" fill="url(#paint9_linear_45_951)"/><g filter="url(#filter0_d_45_951)"><path d="M256.80 104.34C255.74 103.41 254.08 103.98 253.81 105.35L247.36 137.81C247.09 139.19 248.41 140.34 249.74 139.89L281.07 129.25C282.40 128.79 282.74 127.07 281.68 126.15L256.80 104.34Z" fill="url(#paint10_linear_45_951)"/></g><defs><filter id="filter0_d_45_951" x="243.32" y="103.88" width="42.98" height="44.11" filterUnits="userSpaceOnUse" color-interpolation-filters="sRGB"><feFlood flood-opacity="0" result="BackgroundImageFix"/><feColorMatrix in="SourceAlpha" type="matrix" values="0 0 0 0 0 0 0 0 0 0 0 0 0 0 0 0 0 0 127 0" result="hardAlpha"/><feOffset dy="4"/><feGaussianBlur stdDeviation="2"/><feComposite in2="hardAlpha" operator="out"/><feColorMatrix type="matrix" values="0 0 0 0 1.00 0 0 0 0 1.00 0 0 0 0 1.00 0 0 0 1 0"/><feBlend mode="normal" in2="BackgroundImageFix" result="effect1_dropShadow_45_951"/><feBlend mode="normal" in="SourceGraphic" in2="effect1_dropShadow_45_951" result="shape"/></filter><linearGradient id="paint0_linear_45_951" x1="385.06" y1="171.11" x2="343.32" y2="-16.41" gradientUnits="userSpaceOnUse"><stop stop-color="white"/><stop offset="1" stop-color="#EEEEEE"/></linearGradient><linearGradient id="paint1_linear_45_951" x1="465.39" y1="198.03" x2="535.76" y2="142.37" gradientUnits="userSpaceOnUse"><stop stop-color="white"/><stop offset="1" stop-color="#EEEEEE"/></linearGradient><linearGradient id="paint2_linear_45_951" x1="158.28" y1="185.84" x2="88.05" y2="120.59" gradientUnits="userSpaceOnUse"><stop stop-color="white"/><stop offset="1" stop-color="#EEEEEE"/></linearGradient><linearGradient id="paint3_linear_45_951" x1="186.2" y1="211.63" x2="185.74" y2="135.98" gradientUnits="userSpaceOnUse"><stop stop-color="white"/><stop offset="1" stop-color="#EEEEEE"/></linearGradient><linearGradient id="paint4_linear_45_951" x1="60.10" y1="283.80" x2="60.48" y2="221.38" gradientUnits="userSpaceOnUse"><stop stop-color="white"/><stop offset="1" stop-color="#EEEEEE"/></linearGradient><linearGradient id="paint5_linear_45_951" x1="437.54" y1="220.19" x2="437.07" y2="144.54" gradientUnits="userSpaceOnUse"><stop stop-color="white"/><stop offset="1" stop-color="#EEEEEE"/></linearGradient><linearGradient id="paint6_linear_45_951" x1="108.81" y1="239.35" x2="108.41" y2="166.33" gradientUnits="userSpaceOnUse"><stop stop-color="white"/><stop offset="1" stop-color="#EEEEEE"/></linearGradient><linearGradient id="paint7_linear_45_951" x1="517.60" y1="275.33" x2="516.98" y2="161.85" gradientUnits="userSpaceOnUse"><stop stop-color="white"/><stop offset="1" stop-color="#EEEEEE"/></linearGradient><linearGradient id="paint8_linear_45_951" x1="264.64" y1="214.97" x2="400.35" y2="214.97" gradientUnits="userSpaceOnUse"><stop stop-color="#2DA44A"/><stop offset="0.5" stop-color="#3DD6B3"/><stop offset="1" stop-color="#2C7FA3"/></linearGradient><linearGradient id="paint9_linear_45_951" x1="247.59" y1="422.73" x2="245.86" y2="76.39" gradientUnits="userSpaceOnUse"><stop stop-color="white"/><stop offset="1" stop-color="#EEEEEE"/></linearGradient><linearGradient id="paint10_linear_45_951" x1="247.32" y1="121.94" x2="282.31" y2="121.94" gradientUnits="userSpaceOnUse"><stop stop-color="#2DA44A"/><stop offset="0.5" stop-color="#3DD6B3"/><stop offset="1" stop-color="#2C7FA3"/></linearGradient></defs></svg>