<svg xmlns="http://www.w3.org/2000/svg" width="652" height="421" fill="none" viewBox="0 0 652 421"><path fill="url(#a)" d="M40.59 177.77c-16.54 71.86 99.65 244.02 283.95 219.8 85.71-11.26 86.15-54.61 157.63-99.41 42.6-26.71 99.9-42.54 122.99-88.11 19.94-39.33 19.9-85.33 2.89-118.21-38.25-73.93-130.61-136.06-247.16-50.3S83.28-7.55 40.59 177.77"/><path fill="url(#b)" d="M439.34 377.4c45.68-37.58 92.95-77.86 144.02-90.26 52.68-12.8 57.01 4.95 53.6 30.41-3.42 25.45-33.21 79.95-104.82 96.32-71.62 16.37-135.55-1.29-92.8-36.47"/><path fill="#efefef" fill-rule="evenodd" d="M552.99 142.44v37.44h.01a31.4 31.4 0 0 0-16.28 1.06c-4.79 1.64-9.1 4.45-12.52 8.18a30.3 30.3 0 0 0-7.1 13.16 30.8 30.8 0 0 0-.32 13.87c.96 4.59 2.94 8.9 5.81 12.6s6.55 6.69 10.76 8.76a30.68 30.68 0 0 0 19.65 2.52v37.45a24.555 24.555 0 0 1-7.19 17.36 24.5 24.5 0 0 1-7.97 5.32 24.6 24.6 0 0 1-9.39 1.87H491v.01c1.1-5.42.73-11.04-1.06-16.28a30.37 30.37 0 0 0-8.18-12.52 30.27 30.27 0 0 0-13.16-7.1 30.65 30.65 0 0 0-13.87-.31 30.753 30.753 0 0 0-21.35 16.56 30.76 30.76 0 0 0-3.15 13.51c.01 2.06.21 4.12.62 6.14l-37.44-.01c-13.55 0-24.55-10.98-24.55-24.54v-37.45c-2.02.41-4.08.62-6.14.62-4.68 0-9.3-1.08-13.51-3.14a30.7 30.7 0 0 1-10.75-8.76c-2.88-3.7-4.86-8.01-5.82-12.6-.95-4.58-.84-9.33.32-13.87 1.23-4.91 3.67-9.43 7.1-13.16 3.42-3.73 7.73-6.54 12.52-8.17a31.2 31.2 0 0 1 16.28-1.06h-.01v-37.45c0-3.23.63-6.42 1.87-9.4a24.555 24.555 0 0 1 22.68-15.15h37.45c-.41-2.02-.61-4.08-.62-6.14.01-4.68 1.08-9.31 3.15-13.51 2.06-4.21 5.06-7.89 8.76-10.76a30.9 30.9 0 0 1 12.59-5.81c4.59-.95 9.33-.84 13.87.32 4.91 1.23 9.43 3.67 13.16 7.1s6.54 7.73 8.18 12.52A31.2 31.2 0 0 1 491 117.9h37.45c6.51 0 12.76 2.59 17.36 7.19s7.19 10.85 7.19 17.36m-413.11 22.06h37.57v-.01c-1.1 5.44-.73 11.08 1.06 16.33a30.42 30.42 0 0 0 21.41 19.69c4.55 1.16 9.31 1.27 13.91.31 4.6-.95 8.92-2.95 12.64-5.83 3.71-2.88 6.72-6.57 8.78-10.79 2.08-4.21 3.15-8.85 3.16-13.55-.01-2.07-.21-4.13-.62-6.16h37.57c3.23 0 6.43.64 9.42 1.88 2.99 1.23 5.71 3.05 7.99 5.33 2.29 2.29 4.1 5.01 5.34 8 1.24 2.98 1.87 6.19 1.87 9.42v37.57h.02c-5.45-1.1-11.08-.73-16.34 1.06-4.8 1.64-9.12 4.46-12.56 8.2a30.5 30.5 0 0 0-7.12 13.21 30.8 30.8 0 0 0-.31 13.91c.95 4.6 2.94 8.92 5.82 12.64 2.88 3.71 6.57 6.72 10.79 8.79 4.22 2.06 8.86 3.14 13.56 3.15 2.07 0 4.13-.21 6.16-.62l-.02 37.56c.01 13.6-11.01 24.62-24.61 24.63h-37.57c.41 2.02.62 4.09.62 6.16-.01 4.7-1.09 9.33-3.15 13.55a30.9 30.9 0 0 1-8.79 10.79 30.9 30.9 0 0 1-12.64 5.83c-4.6.96-9.36.85-13.91-.32a30.4 30.4 0 0 1-13.2-7.11 30.54 30.54 0 0 1-8.21-12.57 31.36 31.36 0 0 1-1.06-16.33v.01h-37.56c-3.24 0-6.44-.64-9.43-1.87-2.99-1.24-5.7-3.06-7.99-5.34-2.29-2.29-4.1-5.01-5.34-7.99-1.24-2.99-1.87-6.2-1.87-9.43v-37.57c-2.03.41-4.09.62-6.16.62-4.7-.01-9.34-1.08-13.56-3.15a30.9 30.9 0 0 1-10.79-8.79 31 31 0 0 1-5.83-12.64c-.95-4.6-.84-9.36.32-13.91 1.24-4.93 3.69-9.46 7.13-13.2 3.43-3.74 7.75-6.56 12.55-8.21a31.4 31.4 0 0 1 16.34-1.06v-37.57c0-3.23.63-6.44 1.87-9.42 1.24-2.99 3.05-5.71 5.34-8 2.29-2.28 5-4.1 7.99-5.33 2.99-1.24 6.19-1.88 9.43-1.88" clip-rule="evenodd"/><path fill="#ffb780" d="M1.66 391.39c-1.39-1.98-2.37-62.08-1-64.48s61.54-19.87 61.54-19.87 20.37-33.19 39.57-51.78c7.57-7.34 18.64-13.5 21.35-9.38 1.68 2.56-.99 9.1-4.77 15.98l-.03.06c-5.26 9.58-12.63 19.77-13.33 20.73-.02.02-.04.04-.05.07 0 0 49.91-12.68 57.43-14.04 7.52-1.38 17.34-3.57 18.9 1.51 1.44 4.67-11.27 10.13-12.03 10.45.82-.22 18.09-4.99 20.65 1.51 1.9 4.84-15.96 14-16.49 14.26.45-.12 8.96-2.36 9.86 1.68 1.48 6.66-17.05 14.33-17.81 14.65.42-.11 7.31-1.73 7.8 1.99 1.22 9.22-62.51 34.79-81.98 41.98-19.5 7.19-88.22 36.65-89.61 34.68M650.34 61.14c1.39 1.96 2.37 61.68 1 64.07-1.37 2.38-61.53 19.75-61.53 19.75s-20.36 32.98-39.56 51.45c-7.57 7.29-18.64 13.41-21.35 9.31-1.68-2.53.99-9.03 4.77-15.87 0-.02.02-.04.03-.06 5.26-9.52 12.63-19.65 13.33-20.6.04-.05.05-.07.05-.07s-49.9 12.6-57.42 13.96-17.34 3.54-18.9-1.51c-1.43-4.63 11.27-10.07 12.03-10.39-.82.23-18.09 4.97-20.65-1.49-1.9-4.81 15.96-13.91 16.49-14.17-.45.12-8.96 2.35-9.86-1.68-1.48-6.61 17.05-14.23 17.8-14.55-.42.11-7.3 1.72-7.79-1.98-1.22-9.16 62.5-34.57 81.97-41.71 19.5-7.15 88.2-36.43 89.59-34.46"/><defs><linearGradient id="a" x1="39.03" x2="620.48" y1="199.94" y2="199.94" gradientUnits="userSpaceOnUse"><stop stop-color="#2da44a"/><stop offset=".5" stop-color="#3dd6b3"/><stop offset="1" stop-color="#2c7fa3"/></linearGradient><linearGradient id="b" x1="435.55" x2="679.65" y1="539.94" y2="65.01" gradientUnits="userSpaceOnUse"><stop stop-color="#efefef"/><stop offset="1" stop-color="#eee"/></linearGradient></defs></svg>