<svg xmlns="http://www.w3.org/2000/svg" width="417" height="311" viewBox="0 0 417 311" fill="none"><path d="M384.22 198.67C386.71 244.45 297.21 337.52 186.91 303.07C135.60 287.05 139.95 260.45 100.94 225.4C77.69 204.51 44.28 188.71 34.98 158.34C26.96 132.13 31.88 103.96 45.80 85.63C77.09 44.42 140.28 16.20 202.54 81.13C264.80 146.06 377.80 80.61 384.22 198.67Z" fill="url(#paint0_linear_16_300)"/><path d="M359.69 97.77C350.99 113.31 331.92 115.44 301.38 112.49C278.41 110.26 257.46 108.54 234.49 96.02C218.41 87.26 205.69 75.40 196.40 63.89C186.33 51.42 172.28 37.19 179.17 23.05C188.63 3.63 243.37 -12.73 296.52 14.02C354.92 43.42 368.21 82.59 359.69 97.77Z" fill="url(#paint1_linear_16_300)"/><path d="M138.13 287.77C117.85 259.40 97.08 229.25 69.89 214.39C41.84 199.07 36.67 208.51 34.73 223.53C32.79 238.55 41.44 274.13 79.72 294.38C118.00 314.63 157.10 314.32 138.13 287.77Z" fill="url(#paint2_linear_16_300)"/><path d="M372.54 285.83H43.37C33.64 285.83 25.75 277.94 25.75 268.21V61.96C25.75 52.23 33.64 44.34 43.37 44.34H372.54C382.27 44.34 390.17 52.23 390.17 61.96V268.21C390.17 277.94 382.27 285.83 372.54 285.83Z" fill="white" stroke="#C3C3C3" stroke-width="2"/><path d="M390.17 61.96C390.17 63.44 389.58 64.85 388.54 65.89C387.50 66.94 386.08 67.52 384.61 67.52H31.31C29.84 67.52 28.42 66.94 27.38 65.89C26.34 64.85 25.75 63.44 25.75 61.96C25.75 52.23 33.64 44.34 43.37 44.34H372.54C382.27 44.34 390.17 52.23 390.17 61.96Z" fill="white" stroke="#C3C3C3" stroke-width="2"/><path d="M43.41 60.83C43.95 60.84 44.48 60.74 44.98 60.54C45.48 60.34 45.94 60.04 46.32 59.66C46.71 59.28 47.01 58.83 47.22 58.33C47.43 57.83 47.53 57.30 47.53 56.76C47.53 56.22 47.43 55.69 47.22 55.19C47.01 54.69 46.71 54.24 46.32 53.86C45.94 53.49 45.48 53.19 44.98 52.99C44.48 52.78 43.95 52.68 43.41 52.69C42.34 52.70 41.32 53.14 40.56 53.90C39.81 54.66 39.39 55.69 39.39 56.76C39.39 57.83 39.81 58.86 40.56 59.62C41.32 60.38 42.34 60.82 43.41 60.83ZM60.37 60.83C60.91 60.84 61.45 60.74 61.95 60.54C62.45 60.34 62.90 60.04 63.28 59.66C63.67 59.28 63.97 58.83 64.18 58.33C64.39 57.83 64.50 57.30 64.50 56.76C64.50 56.22 64.39 55.69 64.18 55.19C63.97 54.69 63.67 54.24 63.28 53.86C62.90 53.49 62.45 53.19 61.95 52.99C61.45 52.78 60.91 52.68 60.37 52.69C59.30 52.70 58.28 53.14 57.53 53.90C56.77 54.66 56.35 55.69 56.35 56.76C56.35 57.83 56.77 58.86 57.53 59.62C58.28 60.38 59.30 60.82 60.37 60.83ZM76.66 60.83C77.20 60.84 77.73 60.74 78.23 60.54C78.73 60.34 79.19 60.04 79.57 59.66C79.95 59.28 80.26 58.83 80.47 58.33C80.67 57.83 80.78 57.30 80.78 56.76C80.78 56.22 80.67 55.69 80.47 55.19C80.26 54.69 79.95 54.24 79.57 53.86C79.19 53.49 78.73 53.19 78.23 52.99C77.73 52.78 77.20 52.68 76.66 52.69C75.59 52.70 74.56 53.14 73.81 53.90C73.06 54.66 72.64 55.69 72.64 56.76C72.64 57.83 73.06 58.86 73.81 59.62C74.56 60.38 75.59 60.82 76.66 60.83Z" fill="#C3C3C3"/><path d="M145.82 100.12H7.34C3.29 100.12 0 103.40 0 107.46V151.51C0 155.57 3.29 158.85 7.34 158.85H145.82C149.88 158.85 153.16 155.57 153.16 151.51V107.46C153.16 103.40 149.88 100.12 145.82 100.12Z" fill="url(#paint3_linear_16_300)"/><path d="M133.96 118.15H47.48C45.58 118.15 44.03 119.70 44.03 121.60C44.03 123.51 45.58 125.05 47.48 125.05H133.96C135.86 125.05 137.41 123.51 137.41 121.60C137.41 119.70 135.86 118.15 133.96 118.15Z" fill="white"/><path d="M101.07 133.54H47.48C45.58 133.54 44.03 135.08 44.03 136.99C44.03 138.89 45.58 140.44 47.48 140.44H101.07C102.97 140.44 104.51 138.89 104.51 136.99C104.51 135.08 102.97 133.54 101.07 133.54Z" fill="white"/><path d="M24.93 140.44C31.09 140.44 36.08 135.45 36.08 129.29C36.08 123.14 31.09 118.15 24.93 118.15C18.78 118.15 13.79 123.14 13.79 129.29C13.79 135.45 18.78 140.44 24.93 140.44Z" fill="white"/><path d="M363.03 166.77H240.01C235.95 166.77 232.67 170.06 232.67 174.12V288.00C232.67 292.06 235.95 295.35 240.01 295.35H363.03C367.09 295.35 370.37 292.06 370.37 288.00V174.12C370.37 170.06 367.09 166.77 363.03 166.77Z" fill="url(#paint4_linear_16_300)"/><path d="M353.11 254.65H275.36C273.64 254.65 272.26 256.04 272.26 257.75C272.26 259.47 273.64 260.86 275.36 260.86H353.11C354.82 260.86 356.21 259.47 356.21 257.75C356.21 256.04 354.82 254.65 353.11 254.65Z" fill="white"/><path d="M272.01 191.01V238.79C272.01 240.53 273.43 241.95 275.17 241.95H275.17C276.92 241.95 278.34 240.53 278.34 238.79V191.01C278.34 189.27 276.92 187.85 275.17 187.85H275.17C273.43 187.85 272.01 189.27 272.01 191.01Z" fill="white"/><path d="M299.41 191.01V238.79C299.41 240.53 300.83 241.95 302.57 241.95H302.57C304.32 241.95 305.74 240.53 305.74 238.79V191.01C305.74 189.27 304.32 187.85 302.57 187.85H302.57C300.83 187.85 299.41 189.27 299.41 191.01Z" fill="white"/><path d="M326.81 191.01V238.79C326.81 240.53 328.23 241.95 329.98 241.95H329.98C331.72 241.95 333.14 240.53 333.14 238.79V191.01C333.14 189.27 331.72 187.85 329.98 187.85H329.98C328.23 187.85 326.81 189.27 326.81 191.01Z" fill="white"/><path d="M323.53 268.49H275.36C273.64 268.49 272.26 269.88 272.26 271.59C272.26 273.3 273.64 274.69 275.36 274.69H323.53C325.25 274.69 326.63 273.3 326.63 271.59C326.63 269.88 325.25 268.49 323.53 268.49Z" fill="white"/><path d="M286.06 209.63V239.14C286.06 240.69 287.32 241.95 288.87 241.95H288.88C290.43 241.95 291.69 240.69 291.69 239.14V209.63C291.69 208.08 290.43 206.82 288.88 206.82H288.87C287.32 206.82 286.06 208.08 286.06 209.63Z" fill="white"/><path d="M313.46 209.63V239.14C313.46 240.69 314.72 241.95 316.27 241.95H316.27C317.83 241.95 319.08 240.69 319.08 239.14V209.63C319.08 208.08 317.83 206.82 316.27 206.82H316.27C314.72 206.82 313.46 208.08 313.46 209.63Z" fill="white"/><path d="M340.86 209.63V239.14C340.86 240.69 342.12 241.95 343.67 241.95H343.68C345.23 241.95 346.49 240.69 346.49 239.14V209.63C346.49 208.08 345.23 206.82 343.68 206.82H343.67C342.12 206.82 340.86 208.08 340.86 209.63Z" fill="white"/><path d="M255.09 274.69C260.62 274.69 265.10 270.20 265.10 264.67C265.10 259.14 260.62 254.65 255.09 254.65C249.55 254.65 245.07 259.14 245.07 264.67C245.07 270.20 249.55 274.69 255.09 274.69Z" fill="white"/><path d="M404 60.15H273.29C266.66 60.15 261.29 65.52 261.29 72.15V105.84C261.29 112.47 266.66 117.84 273.29 117.84H404C410.63 117.84 416 112.47 416 105.84V72.15C416 65.52 410.63 60.15 404 60.15Z" fill="white" stroke="#C3C3C3"/><path d="M398.11 78.10H308.55C306.58 78.10 304.98 78.94 304.98 79.96C304.98 80.99 306.58 81.82 308.55 81.82H398.11C400.08 81.82 401.68 80.99 401.68 79.96C401.68 78.94 400.08 78.10 398.11 78.10Z" fill="#C3C3C3"/><path d="M364.60 92.98H308.58C306.59 92.98 304.98 93.81 304.98 94.84C304.98 95.87 306.59 96.70 308.58 96.70H364.60C366.59 96.70 368.21 95.87 368.21 94.84C368.21 93.81 366.59 92.98 364.60 92.98Z" fill="#C3C3C3"/><path fill-rule="evenodd" clip-rule="evenodd" d="M284.90 104.21C276.55 104.21 269.79 97.35 269.79 88.89C269.79 80.43 276.55 73.57 284.90 73.57C293.24 73.57 300.00 80.43 300.00 88.89C300.00 97.35 293.24 104.21 284.90 104.21Z" fill="url(#paint5_linear_16_300)"/><path d="M290.22 86.34L283.83 93.14L280.00 89.06" stroke="white" stroke-width="3.57" stroke-linecap="round" stroke-linejoin="round"/><path d="M261.52 153.91C260.38 153.49 259.42 152.93 258.76 152.48C258.63 152.39 258.52 152.28 258.44 152.15C258.36 152.02 258.31 151.88 258.29 151.72C258.27 151.57 258.28 151.42 258.32 151.27C258.37 151.12 258.44 150.99 258.55 150.87C258.72 150.67 258.96 150.54 259.22 150.50C259.49 150.47 259.75 150.53 259.97 150.68C260.52 151.05 261.33 151.53 262.27 151.88L262.38 151.91C264.62 152.71 266.55 152.38 268.11 150.94C268.97 150.14 269.73 149.41 270.40 148.77C273.37 145.93 275 144.36 278.12 143.95C281.30 143.53 283.39 145.90 285.24 147.99C286.56 149.49 287.81 150.91 289.09 150.85L289.37 150.83L289.54 150.92C289.76 150.97 291.91 151.40 295.01 147.49C296.94 145.04 298.78 143.72 300.62 143.46C301.84 143.28 302.88 143.59 303.78 144.05C303.91 144.12 304.03 144.22 304.13 144.33C304.23 144.45 304.30 144.59 304.34 144.74C304.38 144.88 304.38 145.04 304.36 145.19C304.33 145.34 304.28 145.49 304.19 145.61C304.05 145.83 303.82 145.99 303.56 146.06C303.31 146.13 303.04 146.10 302.80 145.97C301.47 145.28 299.66 145.11 296.71 148.83C292.94 153.59 289.91 153.27 288.99 153.02C286.77 153.02 285.17 151.19 283.61 149.43C281.98 147.58 280.44 145.84 278.40 146.11C275.99 146.42 274.71 147.65 271.91 150.34C271.14 151.08 270.36 151.81 269.58 152.54C267.40 154.55 264.63 155.04 261.59 153.94C261.57 153.93 261.54 153.92 261.52 153.91Z" fill="#C3C3C3"/><path d="M305.28 147.25C304.14 146.83 303.18 146.27 302.51 145.82C302.39 145.73 302.28 145.62 302.20 145.49C302.12 145.36 302.07 145.21 302.05 145.06C302.03 144.91 302.04 144.75 302.08 144.60C302.13 144.46 302.20 144.32 302.30 144.21C302.48 144.01 302.72 143.88 302.98 143.84C303.25 143.81 303.51 143.87 303.73 144.02C304.28 144.39 305.09 144.87 306.03 145.21L306.14 145.25C308.38 146.05 310.31 145.72 311.86 144.28C312.73 143.48 313.49 142.75 314.16 142.11C317.13 139.26 318.76 137.70 321.88 137.29C325.06 136.87 327.15 139.24 328.99 141.33C330.32 142.83 331.57 144.25 332.85 144.18L333.13 144.17L333.30 144.26C333.51 144.31 335.67 144.73 338.76 140.82C340.70 138.37 342.54 137.06 344.37 136.79C345.60 136.62 346.64 136.93 347.54 137.39C347.67 137.46 347.79 137.55 347.89 137.67C347.99 137.79 348.06 137.93 348.09 138.07C348.13 138.22 348.14 138.38 348.12 138.53C348.09 138.68 348.04 138.82 347.95 138.95C347.80 139.17 347.58 139.33 347.32 139.40C347.07 139.46 346.79 139.43 346.56 139.31C345.23 138.62 343.42 138.44 340.47 142.17C336.70 146.93 333.67 146.61 332.75 146.36C330.53 146.35 328.92 144.53 327.37 142.77C325.74 140.92 324.20 139.18 322.16 139.44C319.75 139.76 318.47 140.99 315.67 143.67C314.90 144.41 314.12 145.15 313.34 145.87C311.16 147.89 308.39 148.38 305.35 147.28C305.32 147.27 305.30 147.26 305.28 147.25Z" fill="#C3C3C3"/><path d="M60.67 183.67L53.17 191.15L49.53 187.52M76.90 180.09H99.04M77.07 191.07H113.69M60.67 209.30L53.17 216.79L49.53 213.16M76.90 205.72H99.04M77.07 216.71H113.69M113.69 242.34H76.90M113.69 231.35H77.07" stroke="#C3C3C3" stroke-width="2" stroke-linecap="round" stroke-linejoin="round"/><path d="M55.10 246.00C59.14 246.00 62.42 242.72 62.42 238.68C62.42 234.63 59.14 231.35 55.10 231.35C51.05 231.35 47.77 234.63 47.77 238.68C47.77 242.72 51.05 246.00 55.10 246.00Z" stroke="#C3C3C3" stroke-width="2" stroke-linecap="round" stroke-linejoin="round"/><path d="M155.51 183.67L148.02 191.15L144.38 187.52M171.75 180.09H193.89M171.92 191.07H208.54M155.51 209.30L148.02 216.79L144.38 213.16M171.75 205.72H193.89M171.92 216.71H208.54M208.54 242.34H171.75M208.54 231.35H171.92" stroke="#C3C3C3" stroke-width="2" stroke-linecap="round" stroke-linejoin="round"/><path d="M149.95 246.00C153.99 246.00 157.27 242.72 157.27 238.68C157.27 234.63 153.99 231.35 149.95 231.35C145.90 231.35 142.62 234.63 142.62 238.68C142.62 242.72 145.90 246.00 149.95 246.00Z" stroke="#C3C3C3" stroke-width="2" stroke-linecap="round" stroke-linejoin="round"/><path d="M348.25 140.29C350.48 140.70 352.62 139.23 353.03 137.00C353.44 134.76 351.97 132.62 349.74 132.21C347.51 131.80 345.37 133.28 344.95 135.51C344.54 137.74 346.02 139.88 348.25 140.29Z" fill="#C3C3C3"/><path fill-rule="evenodd" clip-rule="evenodd" d="M250.49 123.91H249.05C248.88 123.91 248.72 123.84 248.6 123.72C248.48 123.61 248.41 123.45 248.41 123.28V121.83C248.41 121.48 248.70 121.2 249.05 121.2H250.49C250.66 121.20 250.82 121.27 250.94 121.39C251.06 121.50 251.12 121.66 251.13 121.83V123.28C251.13 123.36 251.11 123.44 251.08 123.52C251.05 123.60 251.00 123.67 250.94 123.73C250.88 123.78 250.81 123.83 250.74 123.86C250.66 123.89 250.58 123.91 250.49 123.91ZM245.48 123.91H244.03C243.86 123.91 243.70 123.84 243.58 123.72C243.47 123.61 243.40 123.45 243.40 123.28V121.83C243.40 121.48 243.68 121.2 244.03 121.2H245.48C245.64 121.20 245.80 121.27 245.92 121.39C246.04 121.50 246.11 121.66 246.11 121.83V123.28C246.11 123.45 246.04 123.61 245.92 123.72C245.80 123.84 245.64 123.91 245.48 123.91ZM240.46 123.91H239.01C238.84 123.91 238.68 123.84 238.56 123.72C238.44 123.61 238.38 123.45 238.38 123.28V121.83C238.38 121.48 238.66 121.2 239.01 121.2H240.46C240.80 121.2 241.09 121.48 241.09 121.83V123.28C241.09 123.36 241.07 123.44 241.04 123.52C241.01 123.60 240.96 123.67 240.90 123.73C240.84 123.78 240.77 123.83 240.70 123.86C240.62 123.89 240.54 123.91 240.46 123.91ZM235.44 123.91H233.99C233.82 123.91 233.66 123.84 233.54 123.72C233.43 123.61 233.36 123.45 233.36 123.28V121.83C233.36 121.48 233.64 121.2 233.99 121.2H235.44C235.79 121.2 236.07 121.48 236.07 121.83V123.28C236.07 123.45 236.00 123.61 235.88 123.72C235.77 123.84 235.61 123.91 235.44 123.91ZM230.42 123.91H228.97C228.81 123.91 228.65 123.84 228.53 123.72C228.41 123.61 228.34 123.45 228.34 123.28V121.83C228.34 121.48 228.62 121.2 228.97 121.2H230.42C230.59 121.20 230.75 121.27 230.87 121.39C230.99 121.50 231.05 121.66 231.05 121.83V123.28C231.05 123.45 230.99 123.61 230.87 123.72C230.75 123.84 230.59 123.91 230.42 123.91ZM245.29 118.44H243.84C243.68 118.44 243.52 118.37 243.40 118.25C243.28 118.14 243.21 117.97 243.21 117.81V116.36C243.21 116.01 243.50 115.72 243.84 115.72H245.29C245.64 115.72 245.92 116.01 245.92 116.36V117.80C245.92 117.89 245.91 117.97 245.88 118.05C245.84 118.12 245.80 118.19 245.74 118.25C245.68 118.31 245.61 118.36 245.53 118.39C245.46 118.42 245.38 118.44 245.29 118.44ZM240.28 118.44H238.83C238.66 118.44 238.5 118.37 238.38 118.25C238.26 118.14 238.20 117.97 238.20 117.81V116.36C238.20 116.01 238.48 115.72 238.83 115.72H240.28C240.62 115.72 240.91 116.01 240.91 116.36V117.80C240.91 117.89 240.89 117.97 240.86 118.05C240.83 118.12 240.78 118.19 240.72 118.25C240.66 118.31 240.59 118.36 240.52 118.39C240.44 118.42 240.36 118.44 240.28 118.44ZM235.26 118.44H233.81C233.64 118.44 233.48 118.37 233.36 118.25C233.24 118.14 233.18 117.97 233.18 117.81V116.36C233.18 116.01 233.46 115.72 233.81 115.72H235.26C235.60 115.72 235.89 116.01 235.89 116.36V117.80C235.89 117.97 235.82 118.13 235.70 118.25C235.59 118.37 235.43 118.44 235.26 118.44ZM240.46 129.79H239.01C238.84 129.79 238.68 129.72 238.56 129.60C238.44 129.48 238.38 129.32 238.38 129.16V127.71C238.38 127.36 238.66 127.08 239.01 127.08H240.46C240.80 127.08 241.09 127.36 241.09 127.71V129.16C241.09 129.24 241.07 129.32 241.04 129.40C241.01 129.47 240.96 129.54 240.90 129.60C240.84 129.66 240.77 129.71 240.70 129.74C240.62 129.77 240.54 129.79 240.46 129.79ZM235.44 129.79H233.99C233.82 129.79 233.66 129.72 233.54 129.60C233.43 129.48 233.36 129.32 233.36 129.16V127.71C233.36 127.36 233.64 127.08 233.99 127.08H235.44C235.79 127.08 236.07 127.36 236.07 127.71V129.16C236.07 129.32 236.00 129.48 235.88 129.60C235.77 129.72 235.61 129.79 235.44 129.79ZM225.20 101.43H223.75C223.59 101.43 223.43 101.36 223.31 101.24C223.19 101.12 223.12 100.96 223.12 100.80V99.35C223.12 99.00 223.41 98.72 223.75 98.72H225.20C225.37 98.72 225.53 98.78 225.65 98.90C225.76 99.02 225.83 99.18 225.83 99.35V100.80C225.83 100.88 225.82 100.96 225.78 101.04C225.75 101.11 225.71 101.18 225.65 101.24C225.59 101.30 225.52 101.35 225.44 101.38C225.37 101.41 225.28 101.43 225.20 101.43ZM220.18 101.43H218.74C218.57 101.43 218.41 101.36 218.29 101.24C218.17 101.12 218.10 100.96 218.10 100.80V99.35C218.10 99.00 218.39 98.72 218.74 98.72H220.18C220.35 98.72 220.51 98.78 220.63 98.90C220.75 99.02 220.81 99.18 220.81 99.35V100.80C220.81 100.96 220.75 101.12 220.63 101.24C220.51 101.36 220.35 101.43 220.18 101.43ZM215.16 101.43H213.72C213.55 101.43 213.39 101.36 213.27 101.24C213.15 101.12 213.09 100.96 213.08 100.80V99.35C213.08 99.00 213.37 98.72 213.72 98.72H215.16C215.51 98.72 215.79 99.00 215.79 99.35V100.80C215.79 100.88 215.78 100.96 215.75 101.04C215.72 101.11 215.67 101.18 215.61 101.24C215.55 101.30 215.48 101.35 215.41 101.38C215.33 101.41 215.25 101.43 215.16 101.43ZM210.15 101.43H208.70C208.53 101.43 208.37 101.36 208.25 101.24C208.13 101.12 208.07 100.96 208.07 100.80V99.35C208.07 99.00 208.35 98.72 208.70 98.72H210.15C210.50 98.72 210.78 99.00 210.78 99.35V100.80C210.78 100.96 210.71 101.12 210.59 101.24C210.47 101.36 210.31 101.43 210.15 101.43ZM205.13 101.43H203.68C203.51 101.43 203.35 101.36 203.23 101.24C203.11 101.12 203.05 100.96 203.05 100.80V99.35C203.05 99.00 203.33 98.72 203.68 98.72H205.13C205.29 98.72 205.46 98.78 205.57 98.90C205.69 99.02 205.76 99.18 205.76 99.35V100.80C205.76 100.96 205.69 101.12 205.57 101.24C205.46 101.36 205.29 101.43 205.13 101.43ZM220.00 95.96H218.55C218.38 95.96 218.22 95.89 218.11 95.77C217.99 95.65 217.92 95.49 217.92 95.32V93.87C217.92 93.53 218.21 93.24 218.55 93.24H220.00C220.35 93.24 220.63 93.53 220.63 93.87V95.32C220.63 95.40 220.62 95.49 220.58 95.56C220.55 95.64 220.51 95.71 220.45 95.77C220.39 95.83 220.32 95.88 220.24 95.91C220.16 95.94 220.08 95.96 220.00 95.96ZM214.98 95.96H213.53C213.37 95.96 213.21 95.89 213.09 95.77C212.97 95.65 212.90 95.49 212.90 95.32V93.87C212.90 93.53 213.19 93.24 213.53 93.24H214.98C215.33 93.24 215.61 93.53 215.61 93.87V95.32C215.61 95.40 215.60 95.49 215.57 95.56C215.53 95.64 215.49 95.71 215.43 95.77C215.37 95.83 215.30 95.88 215.22 95.91C215.15 95.94 215.06 95.96 214.98 95.96ZM209.97 95.96H208.52C208.35 95.96 208.19 95.89 208.07 95.77C207.95 95.65 207.88 95.49 207.88 95.32V93.87C207.88 93.53 208.17 93.24 208.52 93.24H209.97C210.31 93.24 210.60 93.53 210.60 93.87V95.32C210.60 95.49 210.53 95.65 210.41 95.77C210.29 95.89 210.13 95.96 209.97 95.96ZM215.16 107.31H213.72C213.55 107.31 213.39 107.24 213.27 107.12C213.15 107.00 213.09 106.84 213.08 106.67V105.23C213.08 104.88 213.37 104.59 213.72 104.59H215.16C215.51 104.59 215.79 104.88 215.79 105.23V106.67C215.79 106.76 215.78 106.84 215.75 106.92C215.72 106.99 215.67 107.06 215.61 107.12C215.55 107.18 215.48 107.23 215.41 107.26C215.33 107.29 215.25 107.31 215.16 107.31ZM210.15 107.31H208.70C208.53 107.31 208.37 107.24 208.25 107.12C208.13 107.00 208.07 106.84 208.07 106.67V105.23C208.07 104.88 208.35 104.59 208.70 104.59H210.15C210.50 104.59 210.78 104.88 210.78 105.23V106.67C210.78 106.84 210.71 107.00 210.59 107.12C210.47 107.24 210.31 107.30 210.15 107.31Z" fill="#C3C3C3"/><path d="M168.01 137.60C170.38 146.47 179.51 151.74 188.38 149.36C197.26 146.98 202.52 137.86 200.15 128.99C197.77 120.11 188.64 114.84 179.77 117.22C170.90 119.60 165.63 128.72 168.01 137.60Z" fill="url(#paint6_linear_16_300)"/><path d="M172.60 136.37C174.30 142.70 180.81 146.47 187.15 144.77C193.49 143.07 197.25 136.55 195.55 130.21C193.86 123.88 187.34 120.11 181.00 121.81C174.66 123.51 170.9 130.03 172.60 136.37Z" fill="white"/><path d="M188.38 149.36C185.74 150.07 182.96 150.11 180.30 149.49C177.63 148.87 175.16 147.60 173.11 145.80C171.05 143.99 169.47 141.71 168.51 139.15C167.54 136.59 167.23 133.83 167.58 131.12C167.94 128.41 168.96 125.82 170.55 123.6C172.15 121.38 174.26 119.58 176.72 118.37C179.17 117.16 181.89 116.57 184.62 116.66C187.35 116.75 190.03 117.52 192.39 118.88L189.90 123.20C188.24 122.25 186.37 121.71 184.46 121.65C182.54 121.59 180.64 122.00 178.93 122.85C177.21 123.69 175.73 124.95 174.61 126.51C173.49 128.06 172.78 129.87 172.53 131.77C172.28 133.67 172.50 135.6 173.18 137.39C173.85 139.18 174.96 140.78 176.40 142.04C177.84 143.31 179.57 144.19 181.43 144.63C183.30 145.06 185.24 145.03 187.09 144.54L188.38 149.36Z" fill="url(#paint7_linear_16_300)"/><defs><linearGradient id="paint0_linear_16_300" x1="31.13" y1="176.61" x2="384.27" y2="176.61" gradientUnits="userSpaceOnUse"><stop stop-color="#2DA44A"/><stop offset="1" stop-color="#2C7FA3"/></linearGradient><linearGradient id="paint1_linear_16_300" x1="177.34" y1="56.81" x2="362.04" y2="56.81" gradientUnits="userSpaceOnUse"><stop stop-color="#2DA44A"/><stop offset="1" stop-color="#2C7FA3"/></linearGradient><linearGradient id="paint2_linear_16_300" x1="34.48" y1="257.65" x2="143.07" y2="257.65" gradientUnits="userSpaceOnUse"><stop stop-color="#2DA44A"/><stop offset="1" stop-color="#2C7FA3"/></linearGradient><linearGradient id="paint3_linear_16_300" x1="0" y1="129.49" x2="153.16" y2="129.49" gradientUnits="userSpaceOnUse"><stop stop-color="#2DA44A"/><stop offset="0.5" stop-color="#3DD6B3"/><stop offset="1" stop-color="#2C7FA3"/></linearGradient><linearGradient id="paint4_linear_16_300" x1="232.67" y1="231.06" x2="370.37" y2="231.06" gradientUnits="userSpaceOnUse"><stop stop-color="#2DA44A"/><stop offset="0.5" stop-color="#3DD6B3"/><stop offset="1" stop-color="#2C7FA3"/></linearGradient><linearGradient id="paint5_linear_16_300" x1="269.79" y1="88.89" x2="300.00" y2="88.89" gradientUnits="userSpaceOnUse"><stop stop-color="#2DA44A"/><stop offset="0.5" stop-color="#3DD6B3"/><stop offset="1" stop-color="#2C7FA3"/></linearGradient><linearGradient id="paint6_linear_16_300" x1="150.17" y1="143.11" x2="235.02" y2="119.31" gradientUnits="userSpaceOnUse"><stop stop-color="white"/><stop offset="1" stop-color="#EEEEEE"/></linearGradient><linearGradient id="paint7_linear_16_300" x1="167.44" y1="133.29" x2="192.39" y2="133.29" gradientUnits="userSpaceOnUse"><stop offset="1" stop-color="#2C7FA3"/></linearGradient></defs></svg>