<svg xmlns="http://www.w3.org/2000/svg" width="417" height="311" fill="none" viewBox="0 0 417 311"><path fill="url(#a)" d="M384.22 198.67c2.49 45.78-87.01 138.85-197.31 104.4-51.31-16.02-46.96-42.62-85.97-77.67-23.25-20.89-56.66-36.69-65.96-67.06-8.02-26.21-3.1-54.38 10.82-72.71 31.29-41.21 94.48-69.43 156.74-4.5s175.26-.52 181.68 117.54"/><path fill="url(#b)" d="M359.69 97.77c-8.7 15.54-27.77 17.67-58.31 14.72-22.97-2.23-43.92-3.95-66.89-16.47-16.08-8.76-28.8-20.62-38.09-32.13-10.07-12.47-24.12-26.7-17.23-40.84 9.46-19.42 64.2-35.78 117.35-9.03 58.4 29.4 71.69 68.57 63.17 83.75"/><path fill="url(#c)" d="M138.13 287.77c-20.28-28.37-41.05-58.52-68.24-73.38-28.05-15.32-33.22-5.88-35.16 9.14s6.71 50.6 44.99 70.85 77.38 19.94 58.41-6.61"/><path fill="#fff" stroke="#c3c3c3" stroke-width="2" d="M372.54 285.83H43.37c-9.73 0-17.62-7.89-17.62-17.62V61.96c0-9.73 7.89-17.62 17.62-17.62h329.17c9.73 0 17.63 7.89 17.63 17.62v206.25c0 9.73-7.9 17.62-17.63 17.62Z"/><path fill="#fff" stroke="#c3c3c3" stroke-width="2" d="M390.17 61.96c0 1.48-.59 2.89-1.63 3.93a5.53 5.53 0 0 1-3.93 1.63H31.31a5.53 5.53 0 0 1-3.93-1.63 5.56 5.56 0 0 1-1.63-3.93c0-9.73 7.89-17.62 17.62-17.62h329.17c9.73 0 17.63 7.89 17.63 17.62Z"/><path fill="#c3c3c3" d="M43.41 60.83c.54.01 1.07-.09 1.57-.29a4 4 0 0 0 1.34-.88 4.033 4.033 0 0 0 1.21-2.9 4.03 4.03 0 0 0-2.55-3.77 3.85 3.85 0 0 0-1.57-.3 4.1 4.1 0 0 0-2.85 1.21c-.75.76-1.17 1.79-1.17 2.86s.42 2.1 1.17 2.86c.76.76 1.78 1.2 2.85 1.21m16.96 0c.54.01 1.08-.09 1.58-.29s.95-.5 1.33-.88c.39-.38.69-.83.9-1.33s.32-1.03.32-1.57-.11-1.07-.32-1.57-.51-.95-.9-1.33c-.38-.37-.83-.67-1.33-.87-.5-.21-1.04-.31-1.58-.3-1.07.01-2.09.45-2.84 1.21-.76.76-1.18 1.79-1.18 2.86s.42 2.1 1.18 2.86c.75.76 1.77 1.2 2.84 1.21m16.29 0c.54.01 1.07-.09 1.57-.29a4 4 0 0 0 1.34-.88c.38-.38.69-.83.9-1.33.2-.5.31-1.03.31-1.57s-.11-1.07-.31-1.57c-.21-.5-.52-.95-.9-1.33a4.1 4.1 0 0 0-1.34-.87 3.85 3.85 0 0 0-1.57-.3c-1.07.01-2.1.45-2.85 1.21s-1.17 1.79-1.17 2.86.42 2.1 1.17 2.86 1.78 1.2 2.85 1.21"/><path fill="url(#d)" d="M145.82 100.12H7.34c-4.05 0-7.34 3.28-7.34 7.34v44.05c0 4.06 3.29 7.34 7.34 7.34h138.48c4.06 0 7.34-3.28 7.34-7.34v-44.05c0-4.06-3.28-7.34-7.34-7.34"/><path fill="#fff" d="M133.96 118.15H47.48c-1.9 0-3.45 1.55-3.45 3.45a3.45 3.45 0 0 0 3.45 3.45h86.48c1.9 0 3.45-1.54 3.45-3.45 0-1.9-1.55-3.45-3.45-3.45M101.07 133.54H47.48a3.45 3.45 0 0 0-3.45 3.45c0 1.9 1.55 3.45 3.45 3.45h53.59c1.9 0 3.44-1.55 3.44-3.45 0-1.91-1.54-3.45-3.44-3.45M24.93 140.44c6.16 0 11.15-4.99 11.15-11.15 0-6.15-4.99-11.14-11.15-11.14-6.15 0-11.14 4.99-11.14 11.14 0 6.16 4.99 11.15 11.14 11.15"/><path fill="url(#e)" d="M363.03 166.77H240.01a7.34 7.34 0 0 0-7.34 7.35V288a7.34 7.34 0 0 0 7.34 7.35h123.02a7.34 7.34 0 0 0 7.34-7.35V174.12a7.34 7.34 0 0 0-7.34-7.35"/><path fill="#fff" d="M353.11 254.65h-77.75c-1.72 0-3.1 1.39-3.1 3.1 0 1.72 1.38 3.11 3.1 3.11h77.75a3.105 3.105 0 0 0 0-6.21M272.01 191.01v47.78c0 1.74 1.42 3.16 3.16 3.16 1.75 0 3.17-1.42 3.17-3.16v-47.78c0-1.74-1.42-3.16-3.17-3.16-1.74 0-3.16 1.42-3.16 3.16M299.41 191.01v47.78c0 1.74 1.42 3.16 3.16 3.16 1.75 0 3.17-1.42 3.17-3.16v-47.78c0-1.74-1.42-3.16-3.17-3.16-1.74 0-3.16 1.42-3.16 3.16M326.81 191.01v47.78c0 1.74 1.42 3.16 3.17 3.16 1.74 0 3.16-1.42 3.16-3.16v-47.78c0-1.74-1.42-3.16-3.16-3.16-1.75 0-3.17 1.42-3.17 3.16M323.53 268.49h-48.17c-1.72 0-3.1 1.39-3.1 3.1s1.38 3.1 3.1 3.1h48.17c1.72 0 3.1-1.39 3.1-3.1s-1.38-3.1-3.1-3.1M286.06 209.63v29.51c0 1.55 1.26 2.81 2.81 2.81h.01c1.55 0 2.81-1.26 2.81-2.81v-29.51c0-1.55-1.26-2.81-2.81-2.81h-.01c-1.55 0-2.81 1.26-2.81 2.81M313.46 209.63v29.51c0 1.55 1.26 2.81 2.81 2.81 1.56 0 2.81-1.26 2.81-2.81v-29.51c0-1.55-1.25-2.81-2.81-2.81-1.55 0-2.81 1.26-2.81 2.81M340.86 209.63v29.51c0 1.55 1.26 2.81 2.81 2.81h.01c1.55 0 2.81-1.26 2.81-2.81v-29.51c0-1.55-1.26-2.81-2.81-2.81h-.01c-1.55 0-2.81 1.26-2.81 2.81M255.09 274.69c5.53 0 10.01-4.49 10.01-10.02s-4.48-10.02-10.01-10.02c-5.54 0-10.02 4.49-10.02 10.02s4.48 10.02 10.02 10.02"/><path fill="#fff" stroke="#c3c3c3" d="M404 60.15H273.29c-6.63 0-12 5.37-12 12v33.69c0 6.63 5.37 12 12 12H404c6.63 0 12-5.37 12-12V72.15c0-6.63-5.37-12-12-12Z"/><path fill="#c3c3c3" d="M398.11 78.1h-89.56c-1.97 0-3.57.84-3.57 1.86 0 1.03 1.6 1.86 3.57 1.86h89.56c1.97 0 3.57-.83 3.57-1.86 0-1.02-1.6-1.86-3.57-1.86M364.6 92.98h-56.02c-1.99 0-3.6.83-3.6 1.86s1.61 1.86 3.6 1.86h56.02c1.99 0 3.61-.83 3.61-1.86s-1.62-1.86-3.61-1.86"/><path fill="url(#f)" fill-rule="evenodd" d="M284.9 104.21c-8.35 0-15.11-6.86-15.11-15.32s6.76-15.32 15.11-15.32c8.34 0 15.1 6.86 15.1 15.32s-6.76 15.32-15.1 15.32" clip-rule="evenodd"/><path stroke="#fff" stroke-linecap="round" stroke-linejoin="round" stroke-width="3.57" d="m290.22 86.34-6.39 6.8-3.83-4.08"/><path fill="#c3c3c3" d="M261.52 153.91c-1.14-.42-2.1-.98-2.76-1.43a1.051 1.051 0 0 1-.47-.76q-.03-.225.03-.45c.05-.15.12-.28.23-.4.17-.2.41-.33.67-.37.27-.03.53.03.75.18.55.37 1.36.85 2.3 1.2l.11.03c2.24.8 4.17.47 5.73-.97.86-.8 1.62-1.53 2.29-2.17 2.97-2.84 4.6-4.41 7.72-4.82 3.18-.42 5.27 1.95 7.12 4.04 1.32 1.5 2.57 2.92 3.85 2.86l.28-.02.17.09c.22.05 2.37.48 5.47-3.43 1.93-2.45 3.77-3.77 5.61-4.03 1.22-.18 2.26.13 3.16.59.13.07.25.17.35.28a1.07 1.07 0 0 1 .06 1.28c-.14.22-.37.38-.63.45-.25.07-.52.04-.76-.09-1.33-.69-3.14-.86-6.09 2.86-3.77 4.76-6.8 4.44-7.72 4.19-2.22 0-3.82-1.83-5.38-3.59-1.63-1.85-3.17-3.59-5.21-3.32-2.41.31-3.69 1.54-6.49 4.23-.77.74-1.55 1.47-2.33 2.2-2.18 2.01-4.95 2.5-7.99 1.4-.02-.01-.05-.02-.07-.03"/><path fill="#c3c3c3" d="M305.28 147.25c-1.14-.42-2.1-.98-2.77-1.43-.12-.09-.23-.2-.31-.33s-.13-.28-.15-.43-.01-.31.03-.46c.05-.14.12-.28.22-.39.18-.2.42-.33.68-.37.27-.03.53.03.75.18.55.37 1.36.85 2.3 1.19l.11.04c2.24.8 4.17.47 5.72-.97.87-.8 1.63-1.53 2.3-2.17 2.97-2.85 4.6-4.41 7.72-4.82 3.18-.42 5.27 1.95 7.11 4.04 1.33 1.5 2.58 2.92 3.86 2.85l.28-.01.17.09c.21.05 2.37.47 5.46-3.44 1.94-2.45 3.78-3.76 5.61-4.03 1.23-.17 2.27.14 3.17.6.13.07.25.16.35.28s.17.26.2.4c.04.15.05.31.03.46a1.1 1.1 0 0 1-.8.87c-.25.06-.53.03-.76-.09-1.33-.69-3.14-.87-6.09 2.86-3.77 4.76-6.8 4.44-7.72 4.19-2.22-.01-3.83-1.83-5.38-3.59-1.63-1.85-3.17-3.59-5.21-3.33-2.41.32-3.69 1.55-6.49 4.23-.77.74-1.55 1.48-2.33 2.2-2.18 2.02-4.95 2.51-7.99 1.41-.03-.01-.05-.02-.07-.03"/><path stroke="#c3c3c3" stroke-linecap="round" stroke-linejoin="round" stroke-width="2" d="m60.67 183.67-7.5 7.48-3.64-3.63m27.37-7.43h22.14m-21.97 10.98h36.62M60.67 209.3l-7.5 7.49-3.64-3.63m27.37-7.44h22.14m-21.97 10.99h36.62m0 25.63H76.9m36.79-10.99H77.07M55.1 246c4.04 0 7.32-3.28 7.32-7.32 0-4.05-3.28-7.33-7.32-7.33-4.05 0-7.33 3.28-7.33 7.33 0 4.04 3.28 7.32 7.33 7.32M155.51 183.67l-7.49 7.48-3.64-3.63m27.37-7.43h22.14m-21.97 10.98h36.62m-53.03 18.23-7.49 7.49-3.64-3.63m27.37-7.44h22.14m-21.97 10.99h36.62m0 25.63h-36.79m36.79-10.99h-36.62M149.95 246c4.04 0 7.32-3.28 7.32-7.32 0-4.05-3.28-7.33-7.32-7.33-4.05 0-7.33 3.28-7.33 7.33 0 4.04 3.28 7.32 7.33 7.32"/><path fill="#c3c3c3" d="M348.25 140.29c2.23.41 4.37-1.06 4.78-3.29a4.106 4.106 0 0 0-3.29-4.79c-2.23-.41-4.37 1.07-4.79 3.3a4.11 4.11 0 0 0 3.3 4.78"/><path fill="#c3c3c3" fill-rule="evenodd" d="M250.49 123.91h-1.44c-.17 0-.33-.07-.45-.19a.6.6 0 0 1-.19-.44v-1.45c0-.35.29-.63.64-.63h1.44c.17 0 .33.07.45.19.12.11.18.27.19.44v1.45c0 .08-.02.16-.05.24s-.08.15-.14.21c-.06.05-.13.1-.2.13-.08.03-.16.05-.25.05m-5.01 0h-1.45a.628.628 0 0 1-.63-.63v-1.45c0-.35.28-.63.63-.63h1.45c.16 0 .32.07.44.19.12.11.19.27.19.44v1.45c0 .17-.07.33-.19.44-.12.12-.28.19-.44.19m-5.02 0h-1.45c-.17 0-.33-.07-.45-.19a.59.59 0 0 1-.18-.44v-1.45c0-.35.28-.63.63-.63h1.45c.34 0 .63.28.63.63v1.45c0 .08-.02.16-.05.24s-.08.15-.14.21c-.06.05-.13.1-.2.13-.08.03-.16.05-.24.05m-5.02 0h-1.45a.628.628 0 0 1-.63-.63v-1.45c0-.35.28-.63.63-.63h1.45c.35 0 .63.28.63.63v1.45c0 .17-.07.33-.19.44-.11.12-.27.19-.44.19m-5.02 0h-1.45c-.16 0-.32-.07-.44-.19a.6.6 0 0 1-.19-.44v-1.45c0-.35.28-.63.63-.63h1.45c.17 0 .33.07.45.19.12.11.18.27.18.44v1.45c0 .17-.06.33-.18.44-.12.12-.28.19-.45.19m14.87-5.47h-1.45c-.16 0-.32-.07-.44-.19a.61.61 0 0 1-.19-.44v-1.45c0-.35.29-.64.63-.64h1.45c.35 0 .63.29.63.64v1.44c0 .09-.01.17-.04.25-.04.07-.08.14-.14.2s-.13.11-.21.14c-.07.03-.15.05-.24.05m-5.01 0h-1.45c-.17 0-.33-.07-.45-.19a.6.6 0 0 1-.18-.44v-1.45c0-.35.28-.64.63-.64h1.45c.34 0 .63.29.63.64v1.44c0 .09-.02.17-.05.25a.7.7 0 0 1-.14.2.7.7 0 0 1-.2.14c-.08.03-.16.05-.24.05m-5.02 0h-1.45c-.17 0-.33-.07-.45-.19a.6.6 0 0 1-.18-.44v-1.45c0-.35.28-.64.63-.64h1.45c.34 0 .63.29.63.64v1.44c0 .17-.07.33-.19.45-.11.12-.27.19-.44.19m5.2 11.35h-1.45c-.17 0-.33-.07-.45-.19a.62.62 0 0 1-.18-.44v-1.45c0-.35.28-.63.63-.63h1.45c.34 0 .63.28.63.63v1.45c0 .08-.02.16-.05.24a.7.7 0 0 1-.14.2.7.7 0 0 1-.2.14c-.08.03-.16.05-.24.05m-5.02 0h-1.45c-.17 0-.33-.07-.45-.19a.67.67 0 0 1-.18-.44v-1.45c0-.35.28-.63.63-.63h1.45c.35 0 .63.28.63.63v1.45c0 .16-.07.32-.19.44-.11.12-.27.19-.44.19m-10.24-28.36h-1.45c-.16 0-.32-.07-.44-.19a.63.63 0 0 1-.19-.44v-1.45c0-.35.29-.63.63-.63h1.45c.17 0 .33.06.45.18.11.12.18.28.18.45v1.45c0 .08-.01.16-.05.24a.596.596 0 0 1-.34.34c-.07.03-.16.05-.24.05m-5.02 0h-1.44c-.17 0-.33-.07-.45-.19a.63.63 0 0 1-.19-.44v-1.45c0-.35.29-.63.64-.63h1.44c.17 0 .33.06.45.18s.18.28.18.45v1.45c0 .16-.06.32-.18.44s-.28.19-.45.19m-5.02 0h-1.44c-.17 0-.33-.07-.45-.19a.68.68 0 0 1-.19-.44v-1.45c0-.35.29-.63.64-.63h1.44c.35 0 .63.28.63.63v1.45c0 .08-.01.16-.04.24a.7.7 0 0 1-.14.2.7.7 0 0 1-.2.14c-.08.03-.16.05-.25.05m-5.01 0h-1.45c-.17 0-.33-.07-.45-.19a.62.62 0 0 1-.18-.44v-1.45c0-.35.28-.63.63-.63h1.45c.35 0 .63.28.63.63v1.45c0 .16-.07.32-.19.44s-.28.19-.44.19m-5.02 0h-1.45c-.17 0-.33-.07-.45-.19a.62.62 0 0 1-.18-.44v-1.45c0-.35.28-.63.63-.63h1.45c.16 0 .33.06.44.18.12.12.19.28.19.45v1.45c0 .16-.07.32-.19.44-.11.12-.28.19-.44.19M220 95.96h-1.45c-.17 0-.33-.07-.44-.19a.64.64 0 0 1-.19-.45v-1.45c0-.34.29-.63.63-.63H220c.35 0 .63.29.63.63v1.45c0 .08-.01.17-.05.24a.596.596 0 0 1-.34.35c-.08.03-.16.05-.24.05m-5.02 0h-1.45c-.16 0-.32-.07-.44-.19a.64.64 0 0 1-.19-.45v-1.45c0-.34.29-.63.63-.63h1.45c.35 0 .63.29.63.63v1.45c0 .08-.01.17-.04.24a.8.8 0 0 1-.14.21.644.644 0 0 1-.45.19m-5.01 0h-1.45c-.17 0-.33-.07-.45-.19a.64.64 0 0 1-.19-.45v-1.45c0-.34.29-.63.64-.63h1.45c.34 0 .63.29.63.63v1.45c0 .17-.07.33-.19.45s-.28.19-.44.19m5.19 11.35h-1.44c-.17 0-.33-.07-.45-.19a.68.68 0 0 1-.19-.45v-1.44c0-.35.29-.64.64-.64h1.44c.35 0 .63.29.63.64v1.44c0 .09-.01.17-.04.25a.7.7 0 0 1-.14.2.7.7 0 0 1-.2.14c-.08.03-.16.05-.25.05m-5.01 0h-1.45c-.17 0-.33-.07-.45-.19a.63.63 0 0 1-.18-.45v-1.44c0-.35.28-.64.63-.64h1.45c.35 0 .63.29.63.64v1.44c0 .17-.07.33-.19.45s-.28.18-.44.19" clip-rule="evenodd"/><path fill="url(#g)" d="M168.01 137.6c2.37 8.87 11.5 14.14 20.37 11.76 8.88-2.38 14.14-11.5 11.77-20.37-2.38-8.88-11.51-14.15-20.38-11.77s-14.14 11.5-11.76 20.38"/><path fill="#fff" d="M172.6 136.37c1.7 6.33 8.21 10.1 14.55 8.4s10.1-8.22 8.4-14.56c-1.69-6.33-8.21-10.1-14.55-8.4s-10.1 8.22-8.4 14.56"/><path fill="url(#h)" d="M188.38 149.36c-2.64.71-5.42.75-8.08.13a16.62 16.62 0 0 1-11.79-10.34c-.97-2.56-1.28-5.32-.93-8.03.36-2.71 1.38-5.3 2.97-7.52 1.6-2.22 3.71-4.02 6.17-5.23 2.45-1.21 5.17-1.8 7.9-1.71s5.41.86 7.77 2.22l-2.49 4.32a11.7 11.7 0 0 0-5.44-1.55c-1.92-.06-3.82.35-5.53 1.2-1.72.84-3.2 2.1-4.32 3.66a11.55 11.55 0 0 0-2.08 5.26c-.25 1.9-.03 3.83.65 5.62.67 1.79 1.78 3.39 3.22 4.65 1.44 1.27 3.17 2.15 5.03 2.59 1.87.43 3.81.4 5.66-.09z"/><defs><linearGradient id="a" x1="31.13" x2="384.27" y1="176.61" y2="176.61" gradientUnits="userSpaceOnUse"><stop stop-color="#2da44a"/><stop offset="1" stop-color="#2c7fa3"/></linearGradient><linearGradient id="b" x1="177.34" x2="362.04" y1="56.81" y2="56.81" gradientUnits="userSpaceOnUse"><stop stop-color="#2da44a"/><stop offset="1" stop-color="#2c7fa3"/></linearGradient><linearGradient id="c" x1="34.48" x2="143.07" y1="257.65" y2="257.65" gradientUnits="userSpaceOnUse"><stop stop-color="#2da44a"/><stop offset="1" stop-color="#2c7fa3"/></linearGradient><linearGradient id="d" x1="0" x2="153.16" y1="129.49" y2="129.49" gradientUnits="userSpaceOnUse"><stop stop-color="#2da44a"/><stop offset=".5" stop-color="#3dd6b3"/><stop offset="1" stop-color="#2c7fa3"/></linearGradient><linearGradient id="e" x1="232.67" x2="370.37" y1="231.06" y2="231.06" gradientUnits="userSpaceOnUse"><stop stop-color="#2da44a"/><stop offset=".5" stop-color="#3dd6b3"/><stop offset="1" stop-color="#2c7fa3"/></linearGradient><linearGradient id="f" x1="269.79" x2="300" y1="88.89" y2="88.89" gradientUnits="userSpaceOnUse"><stop stop-color="#2da44a"/><stop offset=".5" stop-color="#3dd6b3"/><stop offset="1" stop-color="#2c7fa3"/></linearGradient><linearGradient id="g" x1="150.17" x2="235.02" y1="143.11" y2="119.31" gradientUnits="userSpaceOnUse"><stop stop-color="#fff"/><stop offset="1" stop-color="#eee"/></linearGradient><linearGradient id="h" x1="167.44" x2="192.39" y1="133.29" y2="133.29" gradientUnits="userSpaceOnUse"><stop offset="1" stop-color="#2c7fa3"/></linearGradient></defs></svg>