<svg width="417" height="311" viewBox="0 0 417 311" fill="none" xmlns="http://www.w3.org/2000/svg">
<path d="M384.223 198.671C386.708 244.447 297.214 337.525 186.906 303.074C135.603 287.049 139.949 260.453 100.938 225.4C77.686 204.508 44.276 188.71 34.984 158.342C26.9566 132.131 31.8793 103.957 45.796 85.6313C77.0946 44.4187 140.281 16.198 202.539 81.132C264.797 146.065 377.803 80.614 384.223 198.671Z" fill="url(#paint0_linear_16_300)"/>
<path d="M359.693 97.7698C350.987 113.305 331.923 115.44 301.381 112.487C278.41 110.263 257.463 108.542 234.491 96.0172C218.413 87.2572 205.685 75.4045 196.395 63.8932C186.329 51.4225 172.279 37.1905 179.166 23.0505C188.632 3.62722 243.371 -12.7314 296.525 14.0205C354.915 43.4159 368.208 82.5858 359.693 97.7698Z" fill="url(#paint1_linear_16_300)"/>
<path d="M138.128 287.77C117.849 259.399 97.0797 229.246 69.889 214.394C41.843 199.067 36.6704 208.513 34.729 223.531C32.7877 238.548 41.441 274.13 79.7164 294.375C118.001 314.626 157.104 314.322 138.128 287.77Z" fill="url(#paint2_linear_16_300)"/>
<path d="M372.543 285.833H43.3746C33.6426 285.833 25.75 277.941 25.75 268.209V61.963C25.75 52.231 33.6426 44.3384 43.3746 44.3384H372.543C382.275 44.3384 390.167 52.231 390.167 61.963V268.209C390.167 277.941 382.275 285.833 372.543 285.833Z" fill="white" stroke="#C3C3C3" stroke-width="2"/>
<path d="M390.167 61.963C390.167 63.4375 389.581 64.8516 388.539 65.8941C387.496 66.9367 386.082 67.5224 384.607 67.5224H31.31C29.8355 67.5224 28.4214 66.9367 27.3787 65.8941C26.336 64.8516 25.7502 63.4375 25.75 61.963C25.75 52.231 33.6426 44.3384 43.3746 44.3384H372.543C382.275 44.3384 390.167 52.231 390.167 61.963Z" fill="white" stroke="#C3C3C3" stroke-width="2"/>
<path d="M43.409 60.833C43.948 60.8399 44.483 60.7397 44.983 60.5382C45.4829 60.3367 45.9379 60.0379 46.3215 59.6592C46.7051 59.2805 47.0097 58.8294 47.2175 58.3321C47.4254 57.8347 47.5324 57.301 47.5324 56.762C47.5324 56.223 47.4254 55.6893 47.2175 55.1919C47.0097 54.6946 46.7051 54.2435 46.3215 53.8648C45.9379 53.4861 45.4829 53.1873 44.983 52.9858C44.483 52.7843 43.948 52.6841 43.409 52.691C42.3383 52.7047 41.3162 53.1396 40.5639 53.9016C39.8116 54.6636 39.3898 55.6912 39.3898 56.762C39.3898 57.8328 39.8116 58.8604 40.5639 59.6224C41.3162 60.3844 42.3383 60.8193 43.409 60.833ZM60.3723 60.833C60.9113 60.8399 61.4463 60.7397 61.9463 60.5382C62.4463 60.3367 62.9012 60.0379 63.2848 59.6592C63.6684 59.2805 63.973 58.8294 64.1809 58.3321C64.3887 57.8347 64.4958 57.301 64.4958 56.762C64.4958 56.223 64.3887 55.6893 64.1809 55.1919C63.973 54.6946 63.6684 54.2435 63.2848 53.8648C62.9012 53.4861 62.4463 53.1873 61.9463 52.9858C61.4463 52.7843 60.9113 52.6841 60.3723 52.691C59.3017 52.7047 58.2795 53.1396 57.5272 53.9016C56.7749 54.6636 56.3531 55.6912 56.3531 56.762C56.3531 57.8328 56.7749 58.8604 57.5272 59.6224C58.2795 60.3844 59.3017 60.8193 60.3723 60.833ZM76.6577 60.833C77.1967 60.8399 77.7317 60.7397 78.2316 60.5382C78.7316 60.3367 79.1866 60.0379 79.5702 59.6592C79.9537 59.2805 80.2583 58.8294 80.4662 58.3321C80.6741 57.8347 80.7811 57.301 80.7811 56.762C80.7811 56.223 80.6741 55.6893 80.4662 55.1919C80.2583 54.6946 79.9537 54.2435 79.5702 53.8648C79.1866 53.4861 78.7316 53.1873 78.2316 52.9858C77.7317 52.7843 77.1967 52.6841 76.6577 52.691C75.587 52.7047 74.5648 53.1396 73.8126 53.9016C73.0603 54.6636 72.6384 55.6912 72.6384 56.762C72.6384 57.8328 73.0603 58.8604 73.8126 59.6224C74.5648 60.3844 75.587 60.8193 76.6577 60.833Z" fill="#C3C3C3"/>
<path d="M145.821 100.116H7.342C3.28712 100.116 0 103.403 0 107.458V151.511C0 155.566 3.28712 158.853 7.342 158.853H145.821C149.876 158.853 153.163 155.566 153.163 151.511V107.458C153.163 103.403 149.876 100.116 145.821 100.116Z" fill="url(#paint3_linear_16_300)"/>
<path d="M133.958 118.154H47.4824C45.5777 118.154 44.0337 119.698 44.0337 121.602C44.0337 123.507 45.5777 125.051 47.4824 125.051H133.958C135.863 125.051 137.407 123.507 137.407 121.602C137.407 119.698 135.863 118.154 133.958 118.154Z" fill="white"/>
<path d="M101.066 133.539H47.4824C45.5777 133.539 44.0337 135.083 44.0337 136.987C44.0337 138.891 45.5777 140.435 47.4824 140.435H101.066C102.97 140.435 104.514 138.891 104.514 136.987C104.514 135.083 102.97 133.539 101.066 133.539Z" fill="white"/>
<path d="M24.9341 140.437C31.0873 140.437 36.0754 135.449 36.0754 129.295C36.0754 123.142 31.0873 118.154 24.9341 118.154C18.7809 118.154 13.7928 123.142 13.7928 129.295C13.7928 135.449 18.7809 140.437 24.9341 140.437Z" fill="white"/>
<path d="M363.031 166.774H240.009C235.954 166.774 232.667 170.061 232.667 174.116V288.005C232.667 292.06 235.954 295.347 240.009 295.347H363.031C367.086 295.347 370.373 292.06 370.373 288.005V174.116C370.373 170.061 367.086 166.774 363.031 166.774Z" fill="url(#paint4_linear_16_300)"/>
<path d="M353.106 254.654H275.357C273.645 254.654 272.257 256.042 272.257 257.754C272.257 259.467 273.645 260.855 275.357 260.855H353.106C354.818 260.855 356.206 259.467 356.206 257.754C356.206 256.042 354.818 254.654 353.106 254.654Z" fill="white"/>
<path d="M272.012 191.012V238.788C272.012 240.534 273.428 241.95 275.174 241.95H275.174C276.92 241.95 278.336 240.534 278.336 238.788V191.012C278.336 189.266 276.92 187.851 275.174 187.851H275.174C273.428 187.851 272.012 189.266 272.012 191.012Z" fill="white"/>
<path d="M299.412 191.012V238.788C299.412 240.534 300.827 241.95 302.573 241.95H302.574C304.32 241.95 305.735 240.534 305.735 238.788V191.012C305.735 189.266 304.32 187.851 302.574 187.851H302.573C300.827 187.851 299.412 189.266 299.412 191.012Z" fill="white"/>
<path d="M326.813 191.012V238.788C326.813 240.534 328.229 241.95 329.975 241.95H329.975C331.721 241.95 333.137 240.534 333.137 238.788V191.012C333.137 189.266 331.721 187.851 329.975 187.851H329.975C328.229 187.851 326.813 189.266 326.813 191.012Z" fill="white"/>
<path d="M323.532 268.487H275.357C273.645 268.487 272.257 269.875 272.257 271.588C272.257 273.3 273.645 274.688 275.357 274.688H323.532C325.245 274.688 326.633 273.3 326.633 271.588C326.633 269.875 325.245 268.487 323.532 268.487Z" fill="white"/>
<path d="M286.064 209.63V239.14C286.064 240.692 287.322 241.95 288.874 241.95H288.875C290.427 241.95 291.685 240.692 291.685 239.14V209.63C291.685 208.078 290.427 206.82 288.875 206.82H288.874C287.322 206.82 286.064 208.078 286.064 209.63Z" fill="white"/>
<path d="M313.464 209.63V239.14C313.464 240.692 314.722 241.95 316.274 241.95H316.274C317.826 241.95 319.084 240.692 319.084 239.14V209.63C319.084 208.078 317.826 206.82 316.274 206.82H316.274C314.722 206.82 313.464 208.078 313.464 209.63Z" fill="white"/>
<path d="M340.864 209.63V239.14C340.864 240.692 342.122 241.95 343.674 241.95H343.675C345.227 241.95 346.485 240.692 346.485 239.14V209.63C346.485 208.078 345.227 206.82 343.675 206.82H343.674C342.122 206.82 340.864 208.078 340.864 209.63Z" fill="white"/>
<path d="M255.087 274.687C260.619 274.687 265.103 270.203 265.103 264.671C265.103 259.139 260.619 254.654 255.087 254.654C249.554 254.654 245.07 259.139 245.07 264.671C245.07 270.203 249.554 274.687 255.087 274.687Z" fill="white"/>
<path d="M404 60.1504H273.289C266.661 60.1504 261.289 65.523 261.289 72.1504V105.838C261.289 112.465 266.661 117.838 273.289 117.838H404C410.627 117.838 416 112.465 416 105.838V72.1504C416 65.523 410.627 60.1504 404 60.1504Z" fill="white" stroke="#C3C3C3"/>
<path d="M398.11 78.1046H308.551C306.579 78.1046 304.98 78.9372 304.98 79.9642C304.98 80.9913 306.579 81.8239 308.551 81.8239H398.11C400.082 81.8239 401.681 80.9913 401.681 79.9642C401.681 78.9372 400.082 78.1046 398.11 78.1046Z" fill="#C3C3C3"/>
<path d="M364.603 92.9818H308.585C306.594 92.9818 304.98 93.8144 304.98 94.8414C304.98 95.8685 306.594 96.7011 308.585 96.7011H364.603C366.594 96.7011 368.208 95.8685 368.208 94.8414C368.208 93.8144 366.594 92.9818 364.603 92.9818Z" fill="#C3C3C3"/>
<path fill-rule="evenodd" clip-rule="evenodd" d="M284.896 104.208C276.554 104.208 269.791 97.349 269.791 88.8896C269.791 80.4303 276.554 73.5717 284.896 73.5717C293.238 73.5717 300.002 80.4303 300.002 88.8896C300.002 97.349 293.238 104.208 284.896 104.208Z" fill="url(#paint5_linear_16_300)"/>
<path d="M290.216 86.3365L283.835 93.1445L280.004 89.0605" stroke="white" stroke-width="3.568" stroke-linecap="round" stroke-linejoin="round"/>
<path d="M261.522 153.913C260.385 153.494 259.421 152.929 258.756 152.48C258.629 152.394 258.521 152.282 258.44 152.152C258.36 152.021 258.308 151.875 258.288 151.723C258.268 151.57 258.281 151.416 258.325 151.269C258.369 151.122 258.444 150.986 258.545 150.87C258.719 150.67 258.96 150.54 259.223 150.505C259.487 150.47 259.753 150.533 259.973 150.681C260.524 151.052 261.332 151.529 262.273 151.876L262.379 151.915C264.621 152.709 266.548 152.381 268.106 150.941C268.971 150.141 269.731 149.413 270.402 148.77C273.367 145.927 275 144.361 278.119 143.952C281.301 143.535 283.391 145.903 285.235 147.993C286.559 149.493 287.809 150.909 289.09 150.847L289.37 150.834L289.539 150.919C289.757 150.975 291.912 151.395 295.006 147.486C296.945 145.036 298.779 143.718 300.615 143.458C301.839 143.284 302.881 143.593 303.777 144.049C303.914 144.118 304.034 144.215 304.13 144.334C304.227 144.452 304.297 144.59 304.336 144.738C304.375 144.885 304.383 145.039 304.358 145.19C304.333 145.341 304.277 145.485 304.193 145.612C304.046 145.834 303.823 145.994 303.565 146.06C303.308 146.127 303.035 146.097 302.799 145.974C301.474 145.28 299.659 145.107 296.71 148.833C292.943 153.593 289.913 153.269 288.989 153.021C286.773 153.016 285.165 151.193 283.608 149.429C281.979 147.583 280.439 145.839 278.403 146.106C275.991 146.422 274.711 147.649 271.907 150.337C271.139 151.078 270.364 151.811 269.582 152.536C267.398 154.554 264.635 155.039 261.589 153.938C261.566 153.929 261.544 153.921 261.522 153.913Z" fill="#C3C3C3"/>
<path d="M305.28 147.25C304.143 146.831 303.179 146.266 302.514 145.816C302.387 145.73 302.279 145.619 302.199 145.488C302.118 145.358 302.066 145.211 302.046 145.059C302.026 144.907 302.039 144.752 302.083 144.605C302.128 144.459 302.203 144.323 302.303 144.207C302.477 144.007 302.718 143.877 302.981 143.842C303.245 143.807 303.511 143.869 303.731 144.018C304.282 144.389 305.09 144.866 306.031 145.213L306.137 145.252C308.379 146.046 310.306 145.718 311.864 144.278C312.729 143.478 313.489 142.75 314.16 142.107C317.125 139.264 318.758 137.698 321.877 137.289C325.059 136.872 327.149 139.24 328.993 141.33C330.317 142.83 331.567 144.246 332.848 144.184L333.128 144.171L333.297 144.256C333.515 144.312 335.67 144.732 338.764 140.823C340.703 138.373 342.537 137.055 344.373 136.794C345.597 136.621 346.639 136.93 347.535 137.386C347.672 137.455 347.792 137.552 347.888 137.671C347.985 137.789 348.055 137.927 348.094 138.074C348.133 138.222 348.141 138.376 348.116 138.527C348.091 138.678 348.035 138.822 347.951 138.949C347.804 139.171 347.581 139.331 347.323 139.397C347.066 139.464 346.793 139.433 346.557 139.311C345.232 138.617 343.417 138.444 340.468 142.17C336.701 146.93 333.671 146.606 332.747 146.358C330.531 146.352 328.923 144.53 327.366 142.766C325.737 140.92 324.197 139.176 322.161 139.442C319.749 139.758 318.469 140.986 315.665 143.674C314.897 144.415 314.122 145.148 313.34 145.873C311.156 147.891 308.393 148.376 305.347 147.275C305.324 147.266 305.302 147.258 305.28 147.25Z" fill="#C3C3C3"/>
<path d="M60.6664 183.668L53.1737 191.153L49.5337 187.524M76.9004 180.086H99.0444M77.073 191.072H113.693M60.6664 209.303L53.1737 216.788L49.5337 213.159M76.9004 205.721H99.0444M77.073 216.707H113.693M113.693 242.341H76.9004M113.693 231.355H77.073" stroke="#C3C3C3" stroke-width="2" stroke-linecap="round" stroke-linejoin="round"/>
<path d="M55.0987 246.003C59.144 246.003 62.4233 242.724 62.4233 238.679C62.4233 234.634 59.144 231.355 55.0987 231.355C51.054 231.355 47.7747 234.634 47.7747 238.679C47.7747 242.724 51.054 246.003 55.0987 246.003Z" stroke="#C3C3C3" stroke-width="2" stroke-linecap="round" stroke-linejoin="round"/>
<path d="M155.514 183.668L148.022 191.153L144.382 187.524M171.748 180.086H193.892M171.92 191.072H208.541M155.514 209.303L148.022 216.788L144.382 213.159M171.748 205.721H193.892M171.92 216.707H208.541M208.54 242.341H171.748M208.541 231.355H171.92" stroke="#C3C3C3" stroke-width="2" stroke-linecap="round" stroke-linejoin="round"/>
<path d="M149.947 246.003C153.993 246.003 157.271 242.724 157.271 238.679C157.271 234.634 153.993 231.355 149.947 231.355C145.903 231.355 142.623 234.634 142.623 238.679C142.623 242.724 145.903 246.003 149.947 246.003Z" stroke="#C3C3C3" stroke-width="2" stroke-linecap="round" stroke-linejoin="round"/>
<path d="M348.25 140.291C350.481 140.702 352.622 139.226 353.032 136.995C353.443 134.765 351.967 132.624 349.736 132.213C347.506 131.803 345.365 133.279 344.954 135.509C344.544 137.74 346.02 139.881 348.25 140.291Z" fill="#C3C3C3"/>
<path fill-rule="evenodd" clip-rule="evenodd" d="M250.493 123.91H249.046C248.879 123.91 248.718 123.843 248.6 123.725C248.481 123.607 248.415 123.446 248.415 123.279V121.831C248.415 121.481 248.699 121.2 249.046 121.2H250.493C250.661 121.201 250.821 121.267 250.939 121.386C251.057 121.504 251.124 121.664 251.125 121.831V123.279C251.125 123.362 251.109 123.444 251.077 123.521C251.046 123.597 250.999 123.667 250.94 123.726C250.882 123.784 250.812 123.831 250.735 123.863C250.659 123.894 250.576 123.91 250.493 123.91ZM245.476 123.91H244.029C243.861 123.91 243.701 123.843 243.583 123.725C243.465 123.606 243.398 123.446 243.397 123.279V121.831C243.397 121.481 243.682 121.2 244.029 121.2H245.476C245.643 121.201 245.804 121.267 245.922 121.386C246.04 121.504 246.107 121.664 246.107 121.831V123.279C246.107 123.446 246.04 123.606 245.922 123.725C245.804 123.843 245.643 123.91 245.476 123.91ZM240.455 123.91H239.009C238.841 123.91 238.681 123.843 238.563 123.725C238.444 123.606 238.377 123.446 238.377 123.279V121.831C238.377 121.481 238.661 121.2 239.009 121.2H240.455C240.803 121.2 241.087 121.485 241.087 121.831V123.279C241.087 123.362 241.071 123.444 241.039 123.521C241.008 123.597 240.961 123.667 240.902 123.726C240.844 123.784 240.774 123.831 240.697 123.862C240.621 123.894 240.538 123.91 240.455 123.91ZM235.438 123.91H233.991C233.824 123.91 233.664 123.843 233.545 123.725C233.427 123.606 233.36 123.446 233.359 123.279V121.831C233.359 121.481 233.644 121.2 233.991 121.2H235.438C235.788 121.2 236.073 121.485 236.073 121.831V123.279C236.071 123.446 236.003 123.606 235.885 123.724C235.766 123.843 235.606 123.909 235.438 123.91ZM230.421 123.91H228.973C228.806 123.91 228.645 123.844 228.526 123.725C228.407 123.607 228.34 123.447 228.339 123.279V121.831C228.339 121.481 228.623 121.2 228.973 121.2H230.421C230.588 121.201 230.748 121.267 230.867 121.386C230.985 121.504 231.051 121.664 231.052 121.831V123.279C231.051 123.446 230.985 123.606 230.867 123.725C230.748 123.843 230.588 123.91 230.421 123.91ZM245.292 118.439H243.845C243.678 118.438 243.518 118.372 243.399 118.253C243.281 118.135 243.214 117.975 243.213 117.807V116.357C243.213 116.01 243.498 115.725 243.845 115.725H245.292C245.642 115.725 245.924 116.01 245.924 116.357V117.804C245.924 117.887 245.908 117.97 245.877 118.047C245.845 118.124 245.799 118.194 245.74 118.253C245.681 118.312 245.611 118.359 245.535 118.391C245.458 118.422 245.375 118.439 245.292 118.439ZM240.275 118.439H238.827C238.66 118.438 238.5 118.372 238.382 118.253C238.263 118.135 238.197 117.975 238.196 117.807V116.357C238.196 116.01 238.481 115.725 238.827 115.725H240.275C240.622 115.725 240.907 116.01 240.907 116.357V117.804C240.907 117.887 240.891 117.97 240.86 118.047C240.828 118.124 240.781 118.194 240.723 118.253C240.664 118.312 240.594 118.359 240.517 118.391C240.44 118.422 240.358 118.439 240.275 118.439ZM235.257 118.439H233.81C233.642 118.439 233.481 118.372 233.362 118.254C233.243 118.136 233.176 117.975 233.175 117.807V116.357C233.175 116.01 233.46 115.725 233.81 115.725H235.257C235.604 115.725 235.889 116.01 235.889 116.357V117.804C235.889 117.972 235.822 118.133 235.704 118.252C235.586 118.371 235.425 118.438 235.257 118.439ZM240.455 129.788H239.009C238.841 129.788 238.681 129.721 238.562 129.602C238.444 129.484 238.377 129.324 238.377 129.156V127.709C238.377 127.359 238.661 127.077 239.009 127.077H240.455C240.803 127.077 241.087 127.362 241.087 127.709V129.156C241.088 129.239 241.071 129.321 241.04 129.398C241.008 129.475 240.961 129.545 240.903 129.603C240.844 129.662 240.774 129.709 240.697 129.74C240.621 129.772 240.538 129.788 240.455 129.788ZM235.438 129.788H233.991C233.824 129.788 233.663 129.721 233.545 129.602C233.427 129.484 233.36 129.324 233.359 129.156V127.709C233.359 127.359 233.644 127.077 233.991 127.077H235.438C235.788 127.077 236.073 127.362 236.073 127.709V129.156C236.071 129.324 236.004 129.484 235.885 129.602C235.766 129.72 235.606 129.787 235.438 129.788ZM225.201 101.427H223.753C223.586 101.427 223.425 101.361 223.307 101.242C223.189 101.124 223.122 100.964 223.122 100.796V99.3488C223.122 98.9988 223.407 98.7175 223.753 98.7175H225.201C225.368 98.718 225.528 98.7847 225.647 98.903C225.765 99.0212 225.831 99.1815 225.832 99.3488V100.796C225.832 100.879 225.816 100.961 225.785 101.038C225.753 101.115 225.706 101.184 225.648 101.243C225.589 101.302 225.519 101.348 225.443 101.38C225.366 101.412 225.284 101.428 225.201 101.427ZM220.183 101.427H218.736C218.569 101.427 218.408 101.36 218.29 101.242C218.172 101.124 218.105 100.963 218.104 100.796V99.3488C218.104 98.9988 218.389 98.7175 218.736 98.7175H220.183C220.351 98.718 220.511 98.7847 220.629 98.903C220.747 99.0212 220.814 99.1815 220.815 99.3488V100.796C220.814 100.963 220.747 101.124 220.629 101.242C220.511 101.36 220.351 101.427 220.183 101.427ZM215.163 101.427H213.715C213.548 101.427 213.388 101.36 213.27 101.242C213.151 101.124 213.085 100.963 213.084 100.796V99.3488C213.084 98.9988 213.369 98.7175 213.715 98.7175H215.163C215.51 98.7175 215.795 99.0021 215.795 99.3488V100.796C215.795 100.879 215.778 100.961 215.747 101.038C215.715 101.115 215.668 101.184 215.61 101.243C215.551 101.302 215.481 101.348 215.405 101.38C215.328 101.411 215.246 101.428 215.163 101.427ZM210.145 101.427H208.698C208.531 101.427 208.37 101.36 208.252 101.242C208.134 101.124 208.067 100.963 208.067 100.796V99.3488C208.067 98.9988 208.351 98.7175 208.698 98.7175H210.145C210.495 98.7175 210.78 99.0021 210.78 99.3488V100.796C210.778 100.964 210.711 101.124 210.592 101.242C210.473 101.36 210.313 101.426 210.145 101.427ZM205.128 101.427H203.681C203.513 101.427 203.352 101.361 203.233 101.243C203.114 101.124 203.047 100.964 203.046 100.796V99.3488C203.046 98.9988 203.331 98.7175 203.681 98.7175H205.128C205.295 98.718 205.456 98.7847 205.574 98.903C205.692 99.0212 205.759 99.1815 205.759 99.3488V100.796C205.759 100.963 205.692 101.124 205.574 101.242C205.456 101.36 205.295 101.427 205.128 101.427ZM219.999 95.9561H218.552C218.385 95.9556 218.224 95.8889 218.106 95.7706C217.988 95.6524 217.921 95.4921 217.921 95.3248V93.8748C217.921 93.5275 218.205 93.2428 218.552 93.2428H219.999C220.349 93.2428 220.631 93.5275 220.631 93.8748V95.3215C220.631 95.4047 220.615 95.4872 220.584 95.5642C220.552 95.6412 220.506 95.7112 220.447 95.7702C220.388 95.8292 220.319 95.876 220.242 95.9079C220.165 95.9398 220.083 95.9562 219.999 95.9561ZM214.982 95.9561H213.535C213.367 95.9556 213.207 95.8889 213.089 95.7706C212.971 95.6524 212.904 95.4921 212.903 95.3248V93.8748C212.903 93.5275 213.188 93.2428 213.535 93.2428H214.982C215.329 93.2428 215.613 93.5275 215.613 93.8748V95.3215C215.614 95.4047 215.598 95.4872 215.566 95.5642C215.535 95.6412 215.489 95.7112 215.43 95.7702C215.371 95.8292 215.301 95.876 215.225 95.9079C215.148 95.9398 215.065 95.9562 214.982 95.9561ZM209.965 95.9561H208.517C208.35 95.9561 208.189 95.8897 208.07 95.7714C207.951 95.6531 207.884 95.4925 207.883 95.3248V93.8748C207.883 93.5275 208.167 93.2428 208.517 93.2428H209.965C210.311 93.2428 210.596 93.5275 210.596 93.8748V95.3215C210.596 95.4892 210.53 95.6501 210.411 95.7691C210.293 95.888 210.132 95.9553 209.965 95.9561ZM215.163 107.305H213.715C213.548 107.305 213.388 107.238 213.27 107.119C213.151 107.001 213.085 106.841 213.084 106.673V105.226C213.084 104.877 213.369 104.595 213.715 104.595H215.163C215.51 104.595 215.795 104.879 215.795 105.226V106.673C215.795 106.756 215.778 106.839 215.747 106.915C215.715 106.992 215.668 107.062 215.61 107.121C215.551 107.179 215.481 107.226 215.405 107.258C215.328 107.289 215.246 107.306 215.163 107.305ZM210.145 107.305H208.698C208.531 107.305 208.371 107.238 208.252 107.119C208.134 107.001 208.067 106.841 208.067 106.673V105.226C208.067 104.877 208.351 104.595 208.698 104.595H210.145C210.495 104.595 210.78 104.879 210.78 105.226V106.673C210.778 106.841 210.71 107.001 210.592 107.119C210.473 107.237 210.313 107.304 210.145 107.305Z" fill="#C3C3C3"/>
<path d="M168.006 137.596C170.384 146.471 179.506 151.738 188.381 149.36C197.256 146.982 202.522 137.86 200.145 128.985C197.767 120.11 188.644 114.843 179.77 117.221C170.895 119.599 165.628 128.721 168.006 137.596Z" fill="url(#paint6_linear_16_300)"/>
<path d="M172.598 136.365C174.297 142.704 180.813 146.466 187.152 144.768C193.491 143.069 197.253 136.553 195.554 130.214C193.856 123.875 187.34 120.114 181.001 121.812C174.662 123.511 170.9 130.026 172.598 136.365Z" fill="white"/>
<path d="M188.382 149.359C185.74 150.067 182.963 150.113 180.299 149.491C177.635 148.87 175.165 147.601 173.108 145.798C171.051 143.994 169.471 141.711 168.507 139.15C167.543 136.59 167.226 133.831 167.583 131.119C167.94 128.406 168.961 125.824 170.554 123.6C172.148 121.376 174.265 119.58 176.718 118.37C179.172 117.16 181.886 116.574 184.621 116.663C187.355 116.752 190.025 117.515 192.394 118.883L189.899 123.205C188.241 122.247 186.372 121.713 184.458 121.65C182.544 121.588 180.644 121.998 178.926 122.846C177.208 123.693 175.726 124.95 174.61 126.507C173.494 128.063 172.78 129.871 172.53 131.77C172.28 133.669 172.502 135.6 173.177 137.392C173.852 139.184 174.958 140.783 176.398 142.045C177.838 143.308 179.567 144.195 181.432 144.63C183.297 145.065 185.24 145.034 187.09 144.539L188.382 149.359Z" fill="url(#paint7_linear_16_300)"/>
<defs>
<linearGradient id="paint0_linear_16_300" x1="31.125" y1="176.612" x2="384.274" y2="176.612" gradientUnits="userSpaceOnUse">
<stop stop-color="#2DA44A"/>
<stop offset="1" stop-color="#2C7FA3"/>
</linearGradient>
<linearGradient id="paint1_linear_16_300" x1="177.336" y1="56.8096" x2="362.036" y2="56.8096" gradientUnits="userSpaceOnUse">
<stop stop-color="#2DA44A"/>
<stop offset="1" stop-color="#2C7FA3"/>
</linearGradient>
<linearGradient id="paint2_linear_16_300" x1="34.4753" y1="257.648" x2="143.073" y2="257.648" gradientUnits="userSpaceOnUse">
<stop stop-color="#2DA44A"/>
<stop offset="1" stop-color="#2C7FA3"/>
</linearGradient>
<linearGradient id="paint3_linear_16_300" x1="0" y1="129.485" x2="153.163" y2="129.485" gradientUnits="userSpaceOnUse">
<stop stop-color="#2DA44A"/>
<stop offset="0.5" stop-color="#3DD6B3"/>
<stop offset="1" stop-color="#2C7FA3"/>
</linearGradient>
<linearGradient id="paint4_linear_16_300" x1="232.667" y1="231.06" x2="370.373" y2="231.06" gradientUnits="userSpaceOnUse">
<stop stop-color="#2DA44A"/>
<stop offset="0.5" stop-color="#3DD6B3"/>
<stop offset="1" stop-color="#2C7FA3"/>
</linearGradient>
<linearGradient id="paint5_linear_16_300" x1="269.791" y1="88.89" x2="300.002" y2="88.89" gradientUnits="userSpaceOnUse">
<stop stop-color="#2DA44A"/>
<stop offset="0.5" stop-color="#3DD6B3"/>
<stop offset="1" stop-color="#2C7FA3"/>
</linearGradient>
<linearGradient id="paint6_linear_16_300" x1="150.172" y1="143.11" x2="235.023" y2="119.312" gradientUnits="userSpaceOnUse">
<stop stop-color="white"/>
<stop offset="1" stop-color="#EEEEEE"/>
</linearGradient>
<linearGradient id="paint7_linear_16_300" x1="167.441" y1="133.29" x2="192.394" y2="133.29" gradientUnits="userSpaceOnUse">
<stop offset="1" stop-color="#2C7FA3"/>
</linearGradient>
</defs>
</svg>
