<svg width="418" height="311" viewBox="0 0 418 311" fill="none" xmlns="http://www.w3.org/2000/svg">
<path d="M384.223 198.671C386.708 244.447 297.214 337.525 186.906 303.074C135.603 287.049 139.949 260.453 100.938 225.4C77.686 204.508 44.276 188.71 34.984 158.342C26.9566 132.131 31.8793 103.957 45.796 85.6312C77.0946 44.4185 140.281 16.1979 202.539 81.1319C264.797 146.065 377.803 80.6139 384.223 198.671Z" fill="url(#paint0_linear_256_42)"/>
<path d="M359.692 97.7699C350.987 113.305 331.923 115.44 301.38 112.487C278.409 110.263 257.463 108.542 234.491 96.0172C218.412 87.2572 205.684 75.4046 196.395 63.8932C186.328 51.4226 172.278 37.1906 179.165 23.0506C188.631 3.62722 243.371 -12.7314 296.525 14.0206C354.914 43.4159 368.207 82.5859 359.692 97.7699Z" fill="url(#paint1_linear_256_42)"/>
<path d="M138.129 287.77C117.849 259.4 97.08 229.246 69.8893 214.394C41.8433 199.068 36.6706 208.514 34.7293 223.532C32.788 238.549 41.4413 274.13 79.7166 294.376C118.001 314.626 157.104 314.323 138.129 287.77Z" fill="url(#paint2_linear_256_42)"/>
<path d="M372.543 285.833H43.3747C33.6427 285.833 25.75 277.941 25.75 268.209V61.9633C25.75 52.2313 33.6427 44.3386 43.3747 44.3386H372.543C382.275 44.3386 390.167 52.2313 390.167 61.9633V268.209C390.167 277.941 382.275 285.833 372.543 285.833Z" fill="white" stroke="#E1E4E5" stroke-width="4"/>
<path d="M390.167 61.9633C390.167 63.4378 389.581 64.8518 388.539 65.8944C387.496 66.9369 386.082 67.5226 384.607 67.5226H31.31C29.8355 67.5226 28.4214 66.9369 27.3787 65.8944C26.336 64.8518 25.7502 63.4378 25.75 61.9633C25.75 52.2313 33.6427 44.3386 43.3747 44.3386H372.543C382.275 44.3386 390.167 52.2313 390.167 61.9633Z" fill="white" stroke="#E1E4E5" stroke-width="4"/>
<path d="M43.4099 60.8333C43.9489 60.8401 44.4839 60.7399 44.9838 60.5385C45.4838 60.337 45.9388 60.0382 46.3223 59.6595C46.7059 59.2808 47.0105 58.8296 47.2184 58.3323C47.4262 57.835 47.5333 57.3013 47.5333 56.7622C47.5333 56.2232 47.4262 55.6895 47.2184 55.1922C47.0105 54.6948 46.7059 54.2437 46.3223 53.865C45.9388 53.4863 45.4838 53.1875 44.9838 52.986C44.4839 52.7845 43.9489 52.6844 43.4099 52.6913C42.3392 52.705 41.317 53.1399 40.5647 53.9019C39.8124 54.6638 39.3906 55.6915 39.3906 56.7622C39.3906 57.833 39.8124 58.8607 40.5647 59.6226C41.317 60.3846 42.3392 60.8195 43.4099 60.8333ZM60.3732 60.8333C60.9122 60.8401 61.4472 60.7399 61.9472 60.5385C62.4471 60.337 62.9021 60.0382 63.2857 59.6595C63.6693 59.2808 63.9738 58.8296 64.1817 58.3323C64.3896 57.835 64.4966 57.3013 64.4966 56.7622C64.4966 56.2232 64.3896 55.6895 64.1817 55.1922C63.9738 54.6948 63.6693 54.2437 63.2857 53.865C62.9021 53.4863 62.4471 53.1875 61.9472 52.986C61.4472 52.7845 60.9122 52.6844 60.3732 52.6913C59.3025 52.705 58.2803 53.1399 57.5281 53.9019C56.7758 54.6638 56.354 55.6915 56.354 56.7622C56.354 57.833 56.7758 58.8607 57.5281 59.6226C58.2803 60.3846 59.3025 60.8195 60.3732 60.8333ZM76.6585 60.8333C77.1975 60.8401 77.7325 60.7399 78.2325 60.5385C78.7324 60.337 79.1874 60.0382 79.571 59.6595C79.9546 59.2808 80.2592 58.8296 80.467 58.3323C80.6749 57.835 80.782 57.3013 80.782 56.7622C80.782 56.2232 80.6749 55.6895 80.467 55.1922C80.2592 54.6948 79.9546 54.2437 79.571 53.865C79.1874 53.4863 78.7324 53.1875 78.2325 52.986C77.7325 52.7845 77.1975 52.6844 76.6585 52.6913C75.5879 52.705 74.5657 53.1399 73.8134 53.9019C73.0611 54.6638 72.6393 55.6915 72.6393 56.7622C72.6393 57.833 73.0611 58.8607 73.8134 59.6226C74.5657 60.3846 75.5879 60.8195 76.6585 60.8333Z" fill="#E1E4E5"/>
<path d="M145.821 100.116H7.342C3.28713 100.116 0 103.403 0 107.458V151.511C0 155.566 3.28713 158.853 7.342 158.853H145.821C149.876 158.853 153.163 155.566 153.163 151.511V107.458C153.163 103.403 149.876 100.116 145.821 100.116Z" fill="url(#paint3_linear_256_42)"/>
<path d="M133.959 118.154H47.4828C45.5782 118.154 44.0342 119.698 44.0342 121.602C44.0342 123.507 45.5782 125.05 47.4828 125.05H133.959C135.863 125.05 137.408 123.507 137.408 121.602C137.408 119.698 135.863 118.154 133.959 118.154Z" fill="white"/>
<path d="M101.066 133.539H47.4828C45.5782 133.539 44.0342 135.083 44.0342 136.988C44.0342 138.892 45.5782 140.436 47.4828 140.436H101.066C102.971 140.436 104.515 138.892 104.515 136.988C104.515 135.083 102.971 133.539 101.066 133.539Z" fill="white"/>
<path d="M24.9353 140.436C31.0885 140.436 36.0766 135.448 36.0766 129.295C36.0766 123.142 31.0885 118.154 24.9353 118.154C18.7821 118.154 13.7939 123.142 13.7939 129.295C13.7939 135.448 18.7821 140.436 24.9353 140.436Z" fill="white"/>
<path d="M363.031 166.774H240.009C235.954 166.774 232.667 170.061 232.667 174.116V288.005C232.667 292.059 235.954 295.347 240.009 295.347H363.031C367.086 295.347 370.373 292.059 370.373 288.005V174.116C370.373 170.061 367.086 166.774 363.031 166.774Z" fill="url(#paint4_linear_256_42)"/>
<path d="M353.106 254.655H275.358C273.645 254.655 272.257 256.043 272.257 257.755C272.257 259.467 273.645 260.855 275.358 260.855H353.106C354.819 260.855 356.207 259.467 356.207 257.755C356.207 256.043 354.819 254.655 353.106 254.655Z" fill="white"/>
<path d="M272.012 191.013V238.789C272.012 240.535 273.427 241.95 275.173 241.95H275.174C276.92 241.95 278.335 240.535 278.335 238.789V191.013C278.335 189.267 276.92 187.851 275.174 187.851H275.173C273.427 187.851 272.012 189.267 272.012 191.013Z" fill="white"/>
<path d="M299.412 191.013V238.789C299.412 240.535 300.827 241.95 302.573 241.95H302.574C304.32 241.95 305.735 240.535 305.735 238.789V191.013C305.735 189.267 304.32 187.851 302.574 187.851H302.573C300.827 187.851 299.412 189.267 299.412 191.013Z" fill="white"/>
<path d="M326.813 191.013V238.789C326.813 240.535 328.229 241.95 329.975 241.95H329.975C331.721 241.95 333.137 240.535 333.137 238.789V191.013C333.137 189.267 331.721 187.851 329.975 187.851H329.975C328.229 187.851 326.813 189.267 326.813 191.013Z" fill="white"/>
<path d="M323.533 268.488H275.358C273.645 268.488 272.257 269.876 272.257 271.588C272.257 273.3 273.645 274.688 275.358 274.688H323.533C325.245 274.688 326.634 273.3 326.634 271.588C326.634 269.876 325.245 268.488 323.533 268.488Z" fill="white"/>
<path d="M286.063 209.631V239.14C286.063 240.692 287.322 241.95 288.873 241.95H288.874C290.426 241.95 291.684 240.692 291.684 239.14V209.631C291.684 208.079 290.426 206.821 288.874 206.821H288.873C287.322 206.821 286.063 208.079 286.063 209.631Z" fill="white"/>
<path d="M313.464 209.631V239.14C313.464 240.692 314.722 241.95 316.274 241.95H316.275C317.826 241.95 319.085 240.692 319.085 239.14V209.631C319.085 208.079 317.826 206.821 316.275 206.821H316.274C314.722 206.821 313.464 208.079 313.464 209.631Z" fill="white"/>
<path d="M340.864 209.631V239.14C340.864 240.692 342.122 241.95 343.674 241.95H343.675C345.227 241.95 346.485 240.692 346.485 239.14V209.631C346.485 208.079 345.227 206.821 343.675 206.821H343.674C342.122 206.821 340.864 208.079 340.864 209.631Z" fill="white"/>
<path d="M255.086 274.688C260.618 274.688 265.103 270.203 265.103 264.671C265.103 259.139 260.618 254.655 255.086 254.655C249.554 254.655 245.069 259.139 245.069 264.671C245.069 270.203 249.554 274.688 255.086 274.688Z" fill="white"/>
<path d="M404 60.1499H273.289C266.662 60.1499 261.289 65.5225 261.289 72.1499V105.837C261.289 112.465 266.662 117.837 273.289 117.837H404C410.628 117.837 416 112.465 416 105.837V72.1499C416 65.5225 410.628 60.1499 404 60.1499Z" fill="white" stroke="#E1E4E5" stroke-width="4"/>
<path d="M397.602 77.3511H308.745C306.789 77.3511 305.202 78.9375 305.202 80.8944C305.202 82.8513 306.789 84.4377 308.745 84.4377H397.602C399.559 84.4377 401.145 82.8513 401.145 80.8944C401.145 78.9375 399.559 77.3511 397.602 77.3511Z" fill="#E1E4E5"/>
<path d="M363.804 93.1604H308.745C306.789 93.1604 305.202 94.7468 305.202 96.7037C305.202 98.6607 306.789 100.247 308.745 100.247H363.804C365.761 100.247 367.347 98.6607 367.347 96.7037C367.347 94.7468 365.761 93.1604 363.804 93.1604Z" fill="#E1E4E5"/>
<path fill-rule="evenodd" clip-rule="evenodd" d="M284.897 104.208C276.555 104.208 269.792 97.3486 269.792 88.8893C269.792 80.43 276.555 73.5713 284.897 73.5713C293.239 73.5713 300.003 80.43 300.003 88.8893C300.003 97.3486 293.239 104.208 284.897 104.208Z" fill="url(#paint5_linear_256_42)"/>
<path d="M290.216 86.3364L283.835 93.1444L280.004 89.0604" stroke="white" stroke-width="3.568" stroke-linecap="round" stroke-linejoin="round"/>
<path d="M261.522 153.913C260.385 153.494 259.421 152.929 258.756 152.48C258.629 152.394 258.522 152.282 258.441 152.151C258.36 152.021 258.308 151.875 258.288 151.722C258.269 151.57 258.281 151.415 258.326 151.268C258.37 151.122 258.445 150.986 258.546 150.87C258.72 150.67 258.961 150.54 259.224 150.505C259.487 150.47 259.754 150.533 259.974 150.681C260.524 151.052 261.332 151.529 262.274 151.876L262.379 151.915C264.621 152.709 266.548 152.381 268.106 150.941C268.972 150.141 269.732 149.413 270.402 148.77C273.367 145.927 275 144.361 278.12 143.952C281.302 143.535 283.392 145.903 285.236 147.993C286.559 149.493 287.81 150.909 289.09 150.847L289.37 150.834L289.539 150.919C289.757 150.975 291.912 151.395 295.006 147.486C296.945 145.036 298.78 143.718 300.616 143.458C301.839 143.284 302.881 143.593 303.778 144.049C303.914 144.118 304.035 144.215 304.131 144.333C304.227 144.452 304.297 144.59 304.336 144.737C304.376 144.885 304.383 145.039 304.358 145.19C304.334 145.341 304.277 145.485 304.193 145.612C304.047 145.834 303.823 145.993 303.566 146.06C303.309 146.127 303.036 146.096 302.8 145.974C301.474 145.28 299.66 145.107 296.71 148.833C292.943 153.593 289.913 153.269 288.99 153.021C286.774 153.016 285.166 151.193 283.608 149.429C281.979 147.583 280.44 145.839 278.404 146.106C275.991 146.422 274.711 147.649 271.907 150.337C271.139 151.078 270.364 151.811 269.582 152.536C267.398 154.554 264.635 155.039 261.589 153.938C261.566 153.929 261.544 153.921 261.522 153.913Z" fill="#E1E4E5"/>
<path d="M305.28 147.25C304.143 146.83 303.179 146.265 302.514 145.816C302.387 145.73 302.28 145.618 302.199 145.487C302.118 145.357 302.066 145.211 302.046 145.059C302.026 144.906 302.039 144.752 302.083 144.605C302.128 144.458 302.203 144.322 302.304 144.206C302.477 144.006 302.719 143.876 302.982 143.841C303.245 143.806 303.511 143.869 303.732 144.017C304.282 144.388 305.09 144.866 306.032 145.212L306.137 145.251C308.379 146.045 310.306 145.718 311.864 144.278C312.73 143.478 313.49 142.749 314.16 142.106C317.125 139.263 318.758 137.697 321.878 137.288C325.06 136.872 327.15 139.24 328.994 141.33C330.317 142.829 331.568 144.245 332.848 144.184L333.128 144.17L333.297 144.256C333.515 144.311 335.67 144.731 338.764 140.822C340.703 138.372 342.538 137.054 344.374 136.794C345.597 136.62 346.639 136.929 347.536 137.386C347.672 137.454 347.792 137.551 347.889 137.67C347.985 137.789 348.055 137.926 348.094 138.074C348.133 138.221 348.141 138.376 348.116 138.526C348.092 138.677 348.035 138.821 347.951 138.948C347.804 139.17 347.581 139.33 347.324 139.397C347.066 139.464 346.793 139.433 346.558 139.31C345.232 138.616 343.418 138.444 340.468 142.17C336.701 146.929 333.671 146.606 332.748 146.358C330.532 146.352 328.924 144.53 327.366 142.766C325.737 140.919 324.198 139.175 322.162 139.442C319.749 139.758 318.469 140.985 315.665 143.674C314.897 144.414 314.122 145.147 313.34 145.872C311.156 147.89 308.393 148.375 305.347 147.274C305.324 147.265 305.302 147.258 305.28 147.25Z" fill="#E1E4E5"/>
<path d="M60.6659 183.668L53.1732 191.154L49.5332 187.524M76.8999 180.086H99.0439M77.0725 191.072H113.693M60.6659 209.303L53.1732 216.788L49.5332 213.159M76.8999 205.721H99.0439M77.0725 216.707H113.693M113.693 242.341H76.8999M113.693 231.355H77.0725" stroke="#E1E4E5" stroke-width="5.5" stroke-linecap="round" stroke-linejoin="round"/>
<path d="M55.0994 246.004C59.1447 246.004 62.4241 242.724 62.4241 238.68C62.4241 234.634 59.1447 231.356 55.0994 231.356C51.0547 231.356 47.7754 234.634 47.7754 238.68C47.7754 242.724 51.0547 246.004 55.0994 246.004Z" stroke="#E1E4E5" stroke-width="5.5" stroke-linecap="round" stroke-linejoin="round"/>
<path d="M155.515 183.668L148.022 191.154L144.382 187.524M171.748 180.086H193.893M171.921 191.072H208.541M155.515 209.303L148.022 216.788L144.382 213.159M171.748 205.721H193.893M171.921 216.707H208.541M208.541 242.341H171.748M208.541 231.355H171.921" stroke="#E1E4E5" stroke-width="5.5" stroke-linecap="round" stroke-linejoin="round"/>
<path d="M149.948 246.004C153.993 246.004 157.272 242.724 157.272 238.68C157.272 234.634 153.993 231.356 149.948 231.356C145.903 231.356 142.624 234.634 142.624 238.68C142.624 242.724 145.903 246.004 149.948 246.004Z" stroke="#E1E4E5" stroke-width="5.5" stroke-linecap="round" stroke-linejoin="round"/>
<path d="M348.25 140.291C350.481 140.702 352.622 139.226 353.032 136.995C353.443 134.765 351.967 132.624 349.736 132.214C347.506 131.803 345.365 133.279 344.954 135.51C344.544 137.74 346.02 139.881 348.25 140.291Z" fill="#E1E4E5"/>
<path fill-rule="evenodd" clip-rule="evenodd" d="M250.493 123.911H249.046C248.879 123.91 248.718 123.844 248.6 123.725C248.481 123.607 248.415 123.447 248.415 123.279V121.832C248.415 121.482 248.699 121.201 249.046 121.201H250.493C250.661 121.201 250.821 121.268 250.939 121.386C251.057 121.504 251.124 121.665 251.125 121.832V123.279C251.125 123.362 251.109 123.444 251.077 123.521C251.045 123.598 250.999 123.667 250.94 123.726C250.882 123.785 250.812 123.831 250.735 123.863C250.658 123.895 250.576 123.911 250.493 123.911ZM245.476 123.911H244.029C243.861 123.91 243.701 123.843 243.583 123.725C243.464 123.607 243.398 123.446 243.397 123.279V121.832C243.397 121.482 243.682 121.201 244.029 121.201H245.476C245.643 121.201 245.803 121.268 245.922 121.386C246.04 121.504 246.107 121.665 246.107 121.832V123.279C246.107 123.446 246.04 123.607 245.922 123.725C245.803 123.843 245.643 123.91 245.476 123.911ZM240.455 123.911H239.009C238.841 123.91 238.681 123.843 238.562 123.725C238.444 123.607 238.377 123.447 238.377 123.279V121.832C238.377 121.482 238.661 121.201 239.009 121.201H240.455C240.803 121.201 241.087 121.485 241.087 121.832V123.279C241.087 123.362 241.071 123.444 241.039 123.521C241.008 123.598 240.961 123.667 240.902 123.726C240.844 123.785 240.774 123.831 240.697 123.863C240.62 123.894 240.538 123.911 240.455 123.911ZM235.438 123.911H233.991C233.824 123.91 233.664 123.843 233.545 123.725C233.427 123.607 233.36 123.447 233.359 123.279V121.832C233.359 121.482 233.644 121.201 233.991 121.201H235.438C235.788 121.201 236.073 121.485 236.073 121.832V123.279C236.071 123.447 236.003 123.607 235.885 123.725C235.766 123.843 235.605 123.91 235.438 123.911ZM230.421 123.911H228.973C228.805 123.911 228.645 123.844 228.526 123.726C228.407 123.607 228.339 123.447 228.339 123.279V121.832C228.339 121.482 228.623 121.201 228.973 121.201H230.421C230.588 121.201 230.748 121.268 230.866 121.386C230.985 121.504 231.051 121.665 231.052 121.832V123.279C231.051 123.446 230.985 123.607 230.866 123.725C230.748 123.843 230.588 123.91 230.421 123.911ZM245.292 118.439H243.845C243.678 118.439 243.518 118.372 243.399 118.254C243.281 118.135 243.214 117.975 243.213 117.808V116.358C243.213 116.011 243.498 115.726 243.845 115.726H245.292C245.642 115.726 245.924 116.011 245.924 116.358V117.805C245.924 117.888 245.908 117.97 245.877 118.047C245.845 118.124 245.799 118.194 245.74 118.253C245.681 118.312 245.611 118.359 245.534 118.391C245.458 118.423 245.375 118.439 245.292 118.439ZM240.275 118.439H238.827C238.66 118.439 238.5 118.372 238.381 118.254C238.263 118.135 238.196 117.975 238.196 117.808V116.358C238.196 116.011 238.481 115.726 238.827 115.726H240.275C240.622 115.726 240.907 116.011 240.907 116.358V117.805C240.907 117.888 240.891 117.97 240.859 118.047C240.828 118.124 240.781 118.194 240.723 118.253C240.664 118.312 240.594 118.359 240.517 118.391C240.44 118.423 240.358 118.439 240.275 118.439ZM235.257 118.439H233.81C233.642 118.439 233.481 118.373 233.362 118.254C233.243 118.136 233.176 117.976 233.175 117.808V116.358C233.175 116.011 233.46 115.726 233.81 115.726H235.257C235.604 115.726 235.889 116.011 235.889 116.358V117.805C235.889 117.972 235.822 118.133 235.704 118.252C235.586 118.371 235.425 118.438 235.257 118.439ZM240.455 129.789H239.009C238.841 129.788 238.681 129.721 238.562 129.603C238.444 129.484 238.377 129.324 238.377 129.157V127.71C238.377 127.36 238.661 127.078 239.009 127.078H240.455C240.803 127.078 241.087 127.363 241.087 127.71V129.157C241.087 129.24 241.071 129.322 241.039 129.399C241.008 129.475 240.961 129.545 240.903 129.604C240.844 129.663 240.774 129.709 240.697 129.741C240.621 129.772 240.538 129.789 240.455 129.789ZM235.438 129.789H233.991C233.824 129.788 233.663 129.721 233.545 129.603C233.427 129.484 233.36 129.324 233.359 129.157V127.71C233.359 127.36 233.644 127.078 233.991 127.078H235.438C235.788 127.078 236.073 127.363 236.073 127.71V129.157C236.071 129.324 236.004 129.484 235.885 129.603C235.766 129.721 235.606 129.788 235.438 129.789ZM225.201 101.428H223.753C223.586 101.428 223.425 101.361 223.307 101.243C223.189 101.124 223.122 100.964 223.122 100.796V99.3492C223.122 98.9992 223.407 98.7178 223.753 98.7178H225.201C225.368 98.7184 225.528 98.785 225.646 98.9033C225.765 99.0216 225.831 99.1819 225.832 99.3492V100.796C225.832 100.879 225.816 100.962 225.784 101.038C225.753 101.115 225.706 101.185 225.648 101.244C225.589 101.302 225.519 101.349 225.442 101.38C225.366 101.412 225.284 101.428 225.201 101.428ZM220.183 101.428H218.736C218.569 101.427 218.408 101.36 218.29 101.242C218.172 101.124 218.105 100.964 218.104 100.796V99.3492C218.104 98.9992 218.389 98.7178 218.736 98.7178H220.183C220.351 98.7184 220.511 98.785 220.629 98.9033C220.747 99.0216 220.814 99.1819 220.815 99.3492V100.796C220.814 100.964 220.747 101.124 220.629 101.242C220.511 101.361 220.351 101.427 220.183 101.428ZM215.163 101.428H213.715C213.548 101.427 213.388 101.361 213.269 101.242C213.151 101.124 213.084 100.964 213.084 100.796V99.3492C213.084 98.9992 213.369 98.7178 213.715 98.7178H215.163C215.51 98.7178 215.795 99.0025 215.795 99.3492V100.796C215.795 100.879 215.778 100.962 215.747 101.038C215.715 101.115 215.668 101.185 215.61 101.243C215.551 101.302 215.481 101.348 215.404 101.38C215.328 101.412 215.246 101.428 215.163 101.428ZM210.145 101.428H208.698C208.531 101.427 208.37 101.361 208.252 101.242C208.134 101.124 208.067 100.964 208.067 100.796V99.3492C208.067 98.9992 208.351 98.7178 208.698 98.7178H210.145C210.495 98.7178 210.78 99.0025 210.78 99.3492V100.796C210.778 100.964 210.71 101.124 210.592 101.242C210.473 101.36 210.313 101.427 210.145 101.428ZM205.128 101.428H203.681C203.513 101.428 203.352 101.361 203.233 101.243C203.114 101.125 203.047 100.964 203.046 100.796V99.3492C203.046 98.9992 203.331 98.7178 203.681 98.7178H205.128C205.295 98.7184 205.455 98.785 205.574 98.9033C205.692 99.0216 205.759 99.1819 205.759 99.3492V100.796C205.759 100.964 205.692 101.124 205.574 101.242C205.455 101.361 205.295 101.427 205.128 101.428ZM219.999 95.9565H218.552C218.385 95.956 218.224 95.8893 218.106 95.771C217.988 95.6527 217.921 95.4924 217.921 95.3252V93.8752C217.921 93.5278 218.205 93.2432 218.552 93.2432H219.999C220.349 93.2432 220.631 93.5278 220.631 93.8752V95.3218C220.631 95.4051 220.615 95.4875 220.584 95.5646C220.552 95.6416 220.506 95.7116 220.447 95.7706C220.388 95.8296 220.319 95.8764 220.242 95.9083C220.165 95.9402 220.082 95.9566 219.999 95.9565ZM214.982 95.9565H213.535C213.367 95.956 213.207 95.8893 213.089 95.771C212.97 95.6527 212.904 95.4924 212.903 95.3252V93.8752C212.903 93.5278 213.188 93.2432 213.535 93.2432H214.982C215.329 93.2432 215.613 93.5278 215.613 93.8752V95.3218C215.614 95.4051 215.598 95.4875 215.566 95.5646C215.535 95.6416 215.488 95.7116 215.43 95.7706C215.371 95.8296 215.301 95.8764 215.224 95.9083C215.148 95.9402 215.065 95.9566 214.982 95.9565ZM209.965 95.9565H208.517C208.349 95.9565 208.189 95.8901 208.07 95.7718C207.951 95.6535 207.883 95.4929 207.883 95.3252V93.8752C207.883 93.5278 208.167 93.2432 208.517 93.2432H209.965C210.311 93.2432 210.596 93.5278 210.596 93.8752V95.3218C210.596 95.4896 210.529 95.6505 210.411 95.7694C210.293 95.8884 210.132 95.9556 209.965 95.9565ZM215.163 107.306H213.715C213.548 107.305 213.388 107.238 213.27 107.12C213.151 107.001 213.085 106.841 213.084 106.674V105.227C213.084 104.877 213.369 104.595 213.715 104.595H215.163C215.51 104.595 215.795 104.88 215.795 105.227V106.674C215.795 106.757 215.778 106.839 215.747 106.916C215.715 106.993 215.668 107.062 215.61 107.121C215.551 107.18 215.481 107.226 215.405 107.258C215.328 107.29 215.246 107.306 215.163 107.306ZM210.145 107.306H208.698C208.531 107.305 208.37 107.238 208.252 107.12C208.134 107.001 208.067 106.841 208.067 106.674V105.227C208.067 104.877 208.351 104.595 208.698 104.595H210.145C210.495 104.595 210.78 104.88 210.78 105.227V106.674C210.778 106.841 210.71 107.001 210.592 107.119C210.473 107.238 210.313 107.304 210.145 107.306Z" fill="#E1E4E5"/>
<path d="M168.007 137.596C170.385 146.471 179.507 151.738 188.382 149.36C197.257 146.982 202.524 137.86 200.146 128.985C197.768 120.11 188.645 114.844 179.771 117.221C170.896 119.599 165.629 128.722 168.007 137.596Z" fill="url(#paint6_linear_256_42)"/>
<path d="M172.598 136.366C174.297 142.705 180.813 146.467 187.152 144.768C193.491 143.07 197.253 136.554 195.554 130.215C193.855 123.876 187.34 120.114 181.001 121.813C174.662 123.511 170.9 130.027 172.598 136.366Z" fill="white"/>
<path d="M188.382 149.36C185.739 150.068 182.963 150.113 180.299 149.492C177.634 148.871 175.164 147.602 173.108 145.798C171.051 143.994 169.47 141.711 168.507 139.151C167.543 136.59 167.226 133.832 167.583 131.119C167.94 128.407 168.96 125.824 170.554 123.601C172.147 121.377 174.265 119.58 176.718 118.37C179.172 117.16 181.886 116.574 184.62 116.663C187.355 116.753 190.025 117.515 192.394 118.883L189.899 123.206C188.24 122.248 186.371 121.714 184.457 121.651C182.543 121.588 180.643 121.999 178.926 122.846C177.208 123.693 175.726 124.95 174.61 126.507C173.494 128.064 172.779 129.871 172.529 131.77C172.279 133.669 172.502 135.6 173.176 137.393C173.851 139.185 174.958 140.783 176.398 142.046C177.838 143.308 179.567 144.196 181.432 144.631C183.297 145.066 185.24 145.034 187.09 144.539L188.382 149.36Z" fill="url(#paint7_linear_256_42)"/>
<defs>
<linearGradient id="paint0_linear_256_42" x1="277.259" y1="473.055" x2="109.856" y2="-282.212" gradientUnits="userSpaceOnUse">
<stop stop-color="white"/>
<stop offset="1" stop-color="#EEEEEE"/>
</linearGradient>
<linearGradient id="paint1_linear_256_42" x1="301.05" y1="198.455" x2="223.462" y2="-150.195" gradientUnits="userSpaceOnUse">
<stop stop-color="white"/>
<stop offset="1" stop-color="#EEEEEE"/>
</linearGradient>
<linearGradient id="paint2_linear_256_42" x1="115.485" y1="380.905" x2="48.9493" y2="73.2131" gradientUnits="userSpaceOnUse">
<stop stop-color="white"/>
<stop offset="1" stop-color="#EEEEEE"/>
</linearGradient>
<linearGradient id="paint3_linear_256_42" x1="0" y1="129.485" x2="153.163" y2="129.485" gradientUnits="userSpaceOnUse">
<stop stop-color="#2DA44A"/>
<stop offset="1" stop-color="#2C7FA3"/>
</linearGradient>
<linearGradient id="paint4_linear_256_42" x1="232.667" y1="231.06" x2="370.373" y2="231.06" gradientUnits="userSpaceOnUse">
<stop stop-color="#2DA44A"/>
<stop offset="0.5" stop-color="#3DD6B3"/>
<stop offset="1" stop-color="#2C7FA3"/>
</linearGradient>
<linearGradient id="paint5_linear_256_42" x1="269.792" y1="88.8896" x2="300.003" y2="88.8896" gradientUnits="userSpaceOnUse">
<stop stop-color="#2DA44A"/>
<stop offset="1" stop-color="#2C7FA3"/>
</linearGradient>
<linearGradient id="paint6_linear_256_42" x1="150.173" y1="143.11" x2="235.024" y2="119.312" gradientUnits="userSpaceOnUse">
<stop stop-color="white"/>
<stop offset="1" stop-color="#EEEEEE"/>
</linearGradient>
<linearGradient id="paint7_linear_256_42" x1="167.44" y1="133.291" x2="192.394" y2="133.291" gradientUnits="userSpaceOnUse">
<stop offset="1" stop-color="#2C7FA3"/>
</linearGradient>
</defs>
</svg>
