<svg xmlns="http://www.w3.org/2000/svg" width="600" height="400" fill="none" viewBox="0 0 600 400"><path fill="url(#a)" d="M416.6 116.96c-4.69 8.36-14.94 9.51-31.37 7.92-12.35-1.2-23.62-2.13-35.97-8.86-8.65-4.71-15.5-11.09-20.49-17.28-5.42-6.71-12.97-14.36-9.27-21.97 5.09-10.44 34.53-19.24 63.12-4.85 31.41 15.81 38.56 36.88 33.98 45.04"/><path fill="url(#b)" d="M498.16 184.83c-8.53 4.24-19.86-1.21-19.86-1.21s2.52-12.3 11.05-16.52c8.54-4.24 19.85 1.2 19.85 1.2s-2.51 12.3-11.04 16.53"/><path fill="url(#c)" d="M124.51 169c8.73 5.23 21.25.4 21.25.4s-1.64-13.32-10.37-18.55c-8.73-5.22-21.25-.4-21.25-.4s1.64 13.32 10.37 18.55"/><path fill="#e1e4e5" d="M447.35 304.03c-2.42 0-4.38-1.96-4.38-4.38 0-2.41 1.96-4.37 4.38-4.37s4.38 1.96 4.38 4.37c0 2.42-1.96 4.38-4.38 4.38M111.8 274.59a6.32 6.32 0 0 1 0-12.64c3.49 0 6.33 2.83 6.33 6.32s-2.84 6.32-6.33 6.32M489.05 282.35c-2.66 0-4.82-2.15-4.82-4.81s2.16-4.81 4.82-4.81c2.65 0 4.81 2.15 4.81 4.81s-2.16 4.81-4.81 4.81M396.75 163.47a5.35 5.35 0 1 1 0-10.7 5.35 5.35 0 0 1 0 10.7M88.36 167.64c0 2.65-2.15 4.8-4.81 4.8a4.801 4.801 0 0 1 0-9.6c2.66 0 4.81 2.15 4.81 4.8M250.45 80.68c-3.52 0-6.39-2.86-6.39-6.39a6.395 6.395 0 0 1 12.79 0c0 3.53-2.87 6.39-6.4 6.39M434.16 226.33c-2.72 0-4.92-1.76-4.92-3.93 0-2.18 2.2-3.94 4.92-3.94 2.71 0 4.91 1.76 4.91 3.94 0 2.17-2.2 3.93-4.91 3.93M369.04 63.45c1.43 5.34-1.73 10.82-7.07 12.25-5.33 1.43-10.81-1.74-12.24-7.07s1.73-10.82 7.07-12.25c5.33-1.43 10.82 1.74 12.24 7.07M148.17 135.2h.07c.42 5.88 4.79 5.97 4.79 5.97s-4.82.09-4.82 6.88c0-6.79-4.82-6.88-4.82-6.88s4.37-.09 4.78-5.97m-7.32 153.82h.07c.4 5.86 4.59 5.95 4.59 5.95s-4.62.1-4.62 6.87c0-6.77-4.63-6.87-4.63-6.87s4.19-.09 4.59-5.95"/><path fill="url(#d)" fill-rule="evenodd" d="M162.15 195.62h45.76c4.09 0 5.85-5.32 2.51-7.68l-.14-.1c-4.77-3.29-11.03-2.99-11.03-2.99s-.89-17.8-17.72-17.8c-15.22 0-21.29 15-23.48 23.26-.71 2.68 1.33 5.31 4.1 5.31" clip-rule="evenodd"/><path fill="url(#e)" fill-rule="evenodd" d="M79.94 270.59H42.19c-3.37 0-4.83-4.39-2.07-6.34.04-.02.08-.05.12-.08 3.93-2.71 9.09-2.47 9.09-2.47s.74-14.68 14.63-14.68c12.55 0 17.56 12.37 19.36 19.19.59 2.21-1.1 4.38-3.38 4.38" clip-rule="evenodd"/><path fill="url(#f)" fill-rule="evenodd" d="M413.49 204.18h45.76c4.09 0 5.85-5.32 2.51-7.68l-.15-.09c-4.76-3.29-11.02-3-11.02-3s-.89-17.79-17.72-17.79c-15.22 0-21.29 14.99-23.48 23.25-.71 2.69 1.33 5.31 4.1 5.31" clip-rule="evenodd"/><path fill="url(#g)" fill-rule="evenodd" d="M132.38 223.9H82.84c-4.01 0-5.74-5.14-2.45-7.41l.14-.1c4.67-3.17 10.8-2.89 10.8-2.89s.88-17.17 17.38-17.17c8.16 0 14.75 13.78 14.75 13.78s11.1 0 12.94 8.66c.56 2.63-1.31 5.13-4.02 5.13" clip-rule="evenodd"/><path fill="url(#h)" fill-rule="evenodd" d="M554.84 251.31h-78.28c-6.34 0-9.07-7.98-3.88-11.52l.22-.15c7.38-4.93 17.07-4.48 17.07-4.48s1.39-26.69 27.47-26.69c12.89 0 23.31 21.42 23.31 21.42s17.54 0 20.44 13.45c.88 4.08-2.06 7.97-6.35 7.97" clip-rule="evenodd"/><path stroke="#e1e4e5" stroke-width="4.28" d="m194.21 79.35 112.38 248.9m-24.12-248.9 112.38 248.9m-186.7-219.89h87.62m-76.2 25.39h87.63m-76.2 25.4h87.63m-76.2 25.4h87.62m-76.19 25.4h87.62m-76.19 25.39h87.62"/><path fill="#f8ae9d" d="M390.25 271.62c2.26 1.48 4.06 4.27 4.78 6.85.53 1.99.83 4.02 1.35 6.01.62 2.22 2.01 3.65 3.35 5.49.46.62.92 1.28 1.27 1.99.34.66.26 1.51 1.1 1.38s1.1-1.18 1.08-1.89c-.07-1.83-1.22-2.91-2.11-4.3.14-.02.26-.06.42-.11 1.25 1.62 2.12 3.48 3.07 5.29.82 1.54 1.85 3.53 3.18 4.7.52.47 1.29.65 1.97.52.53-.1 1.05-.55.97-1.06-.03-.23-.18-.42-.15-.64.03-.15.13-.28.25-.4.3-.36.58-.69.89-1.04.56-.67-.19-2.53-.16-3.41.01-.41.11-.79.15-1.17.08-.68.07-1.35-.03-2-.62-3.91-4.13-6.22-6.83-8.68-3.41-3.14-5.8-7.39-6.68-11.95M275.24 155.36c-.29-2.65-.62-5.32-.94-7.94-.28-2.39-.81-4.83-.78-7.25.03-1.46.3-2.91.6-4.34.17-.86.35-1.72.75-2.5.58-1.14 2.92-3.11 2.03-4.5-1.74 1.33-3.5 2.61-5.5 3.54-.57.28-1.2.53-1.87.54-.78 0-1.54-.38-2.2-.78-2.34-1.37-4.37-3.22-5.99-5.35-1.57-2.04-3.19-4.01-4.56-6.2-.1-.15-.16-.28-.32-.36-.26-.14-.59.03-.82.23-.72.76-.5 1.99-.05 2.89.42.84 1.42 2.02 1.39 3.03-.05 1.08-1.3 1.78-1.07 2.94.1.43.39.77.5 1.18.29 1.08-.69 2.09-.88 3.19-.23 1.23.53 2.45 1.32 3.4 1.78 2.15 3.97 3.95 6.4 5.31 1.86 1.02 1.87 3.5 2.1 5.61.24 2.11.14 4.22.15 6.37 0 .28 0 .62.17.9.13.22.31.36.55.49 1.56.97 3.46 1.19 5.31 1.31.63.04 1.3.08 1.91-.14.63-.24 1.88-.94 1.8-1.57"/><path fill="#25432d" d="M318.88 152.15c-2.11 2.21-2.6 5.32-2 8.35.49 2.54 1.92 4.9 3.99 6.41.3.21.64.42 1.03.46.96.04 1.45-1.09 1.71-2.02.43-1.5.43-2.85.67-4.32.25-1.47 1.3-2.69 1.25-4.21-.06-1.44.7-5.67-.43-6.66-1.39-1.21-4.61.56-5.71 1.5-.17.12-.33.29-.51.49"/><path fill="#25432d" d="M339.41 143.44s9.24-.51 9.95 16.12c.78 18.48 8.34 16.25 18.27 32.25 5.81 9.34-2.87 23.85-17.21 22.03-14.33-1.82-26.86-7.43-35.32-6.49-8.45.94-6.62-20.71 2.24-26.52 8.85-5.8-6.51-26.79 4.99-34.19 11.49-7.41 17.08-3.2 17.08-3.2"/><path fill="#f8ae9d" d="M316.93 170.99c-.03 1.17-.03 2.35-.01 3.53.08 2.04 3.47 2.81 4.96 3.32.7.22 1.4.44 2.12.59.29.05 1.4 0 1.59.13.83.57 1.03 8.5 1.49 8.5 4.23.11 8.39 1.04 12.26 2.74-.93-9.2 2.75-18.73.09-27.59-1.11-3.69-3.31-7.02-6.23-9.51-1.9-1.64-6.04-4.11-8.51-2.41-.75.53-1.3 1.28-1.78 2.05-3.52 5.52-5.73 12.07-5.98 18.65"/><path fill="#25432d" d="M387.7 221.96c1.03-1.67 1.2-3.7 1.09-5.63-.47-8.29-5.46-15.7-11.48-21.38-6.03-5.69-13.17-10.05-19.6-15.27-1.67-1.35-3.33-2.8-5.32-3.65-1.99-.84-4.39-1.03-6.23.12-1.3.8-2.14 2.17-2.7 3.57-1.22 3.05-1.23 6.43-1.03 9.68.25 4.11.82 8.21 2.05 12.09.99 3.12 2.78 6.42 5.91 7.35.54 3.67 2.09 7.22 4.48 10.06 2.74 3.26 6.4 5.59 10.26 7.36 3.56 1.63 7.52 2.87 11.36 2.1 2.27-.44 4.35-1.53 6.39-2.65 1.81-.95 3.7-1.99 4.82-3.75M354.89 213l-1.81-3.7c.46.1.88.24 1.31.46 1.14.65 1.66 2.61.5 3.24"/><path fill="url(#i)" d="M327.46 186.63c-3.88.34-6.7 3.82-10.58 4.05-4.94.28-10.38-.96-15.32-1.42-4.02-.37-8.48-.98-11.02-4.11-.3-.38-.58-.79-1.02-.98-.48-.22-1.65-.37-1.91-.83a80.4 80.4 0 0 1-6.73-15.51c-.53-1.71-5.28-16.58-5.01-16.67a42 42 0 0 1-6.05 1.21c-2.63.33-5.11 2.42-5.15 5.06-.05 3.47-.07 6.96.23 10.39.82 9.29 4.08 18.42 9.64 25.89 5.74 7.68 14.09 13.1 23.16 16.65 5.87 2.29 10 8.52 12.97 14.08 2.73 5.08 5.8 8.79 6.7 14.64.79 5.19.45 10.59-1.04 15.64-.14.48-.3.98-.27 1.5.03.35.11.7.26 1.01.85 2.11 2.69 3.61 4.48 4.99 8 6.23 18.15 11.19 27.87 14.22 10.9 3.35 18.39-11.42 15.35-22.42-2.28-8.3-8.04-15.17-9.37-23.71-.4-2.55 2.23-2.82 4.16-1.1 5.19 4.6 12.72 6.95 17.14 12.55 3.58 4.54 4.52 10.55 6.25 16.05 1.15 3.68 2.72 7.24 4.73 10.53 1.67 2.73 4.8 4.47 7.88 3.61 3.88-1.08 4.94-5.56 3.82-9.42-1.85-6.34-3.89-12.56-5.54-19.01-.57-2.23-1.16-4.52-2.47-6.41-1.51-2.17-3.8-3.67-5.85-5.33-5.28-4.29-9.06-10.14-13.36-15.45a96.6 96.6 0 0 0-18.63-17.67c-2.69-1.96-5.51-3.81-8.33-5.6-2.02-1.31-4.05-2.63-6.06-3.96-.82-.52-1.62-1.06-2.52-1.47-2.74-1.16-5.42-1.26-8.41-1"/><path fill="#e1e4e5" fill-rule="evenodd" stroke="#e1e4e5" stroke-width="4.28" d="M499.72 347.7c36.01 0 19.16-49.65-26.46-37.8-2.52-68.94-131.75-119.39-185.18-26.4-15.11-10.39-49.04 9.25-41.52 26.4-16.79 1.25-29.99 2.94-40.26 5.17-23.72 5.17-19.02 32.4 5.42 32.21z" clip-rule="evenodd"/><path fill="url(#j)" fill-rule="evenodd" d="M112.7 349.42h260.38c24.45 0 23.32-20.28 15.34-27.34-8.18-7.25-24.35-4.31-24.35-4.31s-4.81-13.64-20.66-20.28c-14.01-5.88-28.7-3.08-28.7-3.08s0-9.36-8.97-17.12c-8.97-7.75-20.94-7-20.94-7s-8.22-51.62-63.19-51.62c-54.96 0-61.32 48.61-61.32 48.61s-12.33 0-21.31 8.29c-8.97 8.29-10.1 17.71-10.1 17.71S98.87 289.2 90 315.29c-5.29 15.55 5.58 34.13 22.7 34.13" clip-rule="evenodd"/><g filter="url(#k)"><path fill="url(#l)" d="M256.8 104.34c-1.06-.93-2.72-.36-2.99 1.01l-6.45 32.46c-.27 1.38 1.05 2.53 2.38 2.08l31.33-10.64c1.33-.46 1.67-2.18.61-3.1z"/></g><defs><linearGradient id="a" x1="385.06" x2="343.32" y1="171.11" y2="-16.41" gradientUnits="userSpaceOnUse"><stop stop-color="#fff"/><stop offset="1" stop-color="#eee"/></linearGradient><linearGradient id="b" x1="465.39" x2="535.76" y1="198.03" y2="142.37" gradientUnits="userSpaceOnUse"><stop stop-color="#fff"/><stop offset="1" stop-color="#eee"/></linearGradient><linearGradient id="c" x1="158.28" x2="88.05" y1="185.84" y2="120.59" gradientUnits="userSpaceOnUse"><stop stop-color="#fff"/><stop offset="1" stop-color="#eee"/></linearGradient><linearGradient id="d" x1="186.2" x2="185.74" y1="211.63" y2="135.98" gradientUnits="userSpaceOnUse"><stop stop-color="#fff"/><stop offset="1" stop-color="#eee"/></linearGradient><linearGradient id="e" x1="60.1" x2="60.48" y1="283.8" y2="221.38" gradientUnits="userSpaceOnUse"><stop stop-color="#fff"/><stop offset="1" stop-color="#eee"/></linearGradient><linearGradient id="f" x1="437.54" x2="437.07" y1="220.19" y2="144.54" gradientUnits="userSpaceOnUse"><stop stop-color="#fff"/><stop offset="1" stop-color="#eee"/></linearGradient><linearGradient id="g" x1="108.81" x2="108.41" y1="239.35" y2="166.33" gradientUnits="userSpaceOnUse"><stop stop-color="#fff"/><stop offset="1" stop-color="#eee"/></linearGradient><linearGradient id="h" x1="517.6" x2="516.98" y1="275.33" y2="161.85" gradientUnits="userSpaceOnUse"><stop stop-color="#fff"/><stop offset="1" stop-color="#eee"/></linearGradient><linearGradient id="i" x1="264.64" x2="400.35" y1="214.97" y2="214.97" gradientUnits="userSpaceOnUse"><stop stop-color="#2da44a"/><stop offset=".5" stop-color="#3dd6b3"/><stop offset="1" stop-color="#2c7fa3"/></linearGradient><linearGradient id="j" x1="247.59" x2="245.86" y1="422.73" y2="76.39" gradientUnits="userSpaceOnUse"><stop stop-color="#fff"/><stop offset="1" stop-color="#eee"/></linearGradient><linearGradient id="l" x1="247.32" x2="282.31" y1="121.94" y2="121.94" gradientUnits="userSpaceOnUse"><stop stop-color="#2da44a"/><stop offset=".5" stop-color="#3dd6b3"/><stop offset="1" stop-color="#2c7fa3"/></linearGradient><filter id="k" width="42.98" height="44.11" x="243.32" y="103.88" color-interpolation-filters="sRGB" filterUnits="userSpaceOnUse"><feFlood flood-opacity="0" result="BackgroundImageFix"/><feColorMatrix in="SourceAlpha" result="hardAlpha" values="0 0 0 0 0 0 0 0 0 0 0 0 0 0 0 0 0 0 127 0"/><feOffset dy="4"/><feGaussianBlur stdDeviation="2"/><feComposite in2="hardAlpha" operator="out"/><feColorMatrix values="0 0 0 0 1.00 0 0 0 0 1.00 0 0 0 0 1.00 0 0 0 1 0"/><feBlend in2="BackgroundImageFix" result="effect1_dropShadow_45_951"/><feBlend in="SourceGraphic" in2="effect1_dropShadow_45_951" result="shape"/></filter></defs></svg>