<svg width="685" height="422" viewBox="0 0 685 422" fill="none" xmlns="http://www.w3.org/2000/svg">
<path d="M629.268 49.913H97.0312C81.5673 49.913 69.0312 62.449 69.0312 77.913V391.6C69.0312 407.064 81.5673 419.6 97.0312 419.6H629.268C644.732 419.6 657.268 407.064 657.268 391.6V77.913C657.268 62.449 644.732 49.913 629.268 49.913Z" fill="url(#paint0_linear_219_62)"/>
<path d="M573.205 77.0911H532.44C526.039 77.0911 520.851 82.2794 520.851 88.6796C520.851 95.0797 526.039 100.268 532.44 100.268H573.205C579.605 100.268 584.794 95.0797 584.794 88.6796C584.794 82.2794 579.605 77.0911 573.205 77.0911Z" fill="#EFEFEF" stroke="#EFEFEF" stroke-opacity="0.937255" stroke-width="4"/>
<path d="M487.144 77.0911H446.379C439.979 77.0911 434.79 82.2794 434.79 88.6796C434.79 95.0797 439.979 100.268 446.379 100.268H487.144C493.544 100.268 498.733 95.0797 498.733 88.6796C498.733 82.2794 493.544 77.0911 487.144 77.0911Z" fill="#EFEFEF" stroke="#EFEFEF" stroke-opacity="0.937255" stroke-width="4"/>
<path d="M412.672 88.6796C412.672 82.2794 407.484 77.0911 401.084 77.0911C394.683 77.0911 389.495 82.2794 389.495 88.6796C389.495 95.0797 394.683 100.268 401.084 100.268C407.484 100.268 412.672 95.0797 412.672 88.6796Z" fill="#EFEFEF" stroke="#EFEFEF" stroke-opacity="0.937255" stroke-width="4"/>
<path d="M142.553 292.315H221.611V321.268H254.907V292.315H275.335V264.407H254.907V156.557H211.316L142.553 264.89V292.315ZM222.254 264.407H177.618V263.12L220.967 194.518H222.254V264.407ZM363.118 324.887C404.537 324.887 429.549 293.36 429.63 239.073C429.71 185.189 404.376 154.305 363.118 154.305C321.78 154.305 296.687 185.108 296.607 239.073C296.446 293.199 321.619 324.806 363.118 324.887ZM363.118 296.014C344.219 296.014 331.994 277.034 332.074 239.073C332.155 201.676 344.299 182.856 363.118 182.856C381.857 182.856 394.082 201.676 394.082 239.073C394.162 277.034 381.938 296.014 363.118 296.014ZM451.968 292.315H531.026V321.268H564.322V292.315H584.75V264.407H564.322V156.557H520.731L451.968 264.89V292.315ZM531.669 264.407H487.033V263.12L530.382 194.518H531.669V264.407Z" fill="#EFEFEF" fill-opacity="0.75"/>
<path d="M125.047 86.4151C125.047 81.2656 120.873 77.0911 115.723 77.0911C110.574 77.0911 106.399 81.2656 106.399 86.4151C106.399 91.5646 110.574 95.7391 115.723 95.7391C120.873 95.7391 125.047 91.5646 125.047 86.4151Z" fill="#EFEFEF" stroke="#EFEFEF" stroke-opacity="0.937255" stroke-width="4"/>
<path d="M76.6982 298.712C83.2334 298.712 88.5312 304.01 88.5312 310.545C88.5312 317.08 83.2334 322.378 76.6982 322.378C70.163 322.378 64.8652 317.08 64.8652 310.545C64.8652 304.01 70.163 298.712 76.6982 298.712Z" fill="url(#paint1_linear_219_62)"/>
<path d="M656.19 136.369C664.62 132.81 674.339 136.759 677.898 145.19C681.457 153.62 677.508 163.339 669.077 166.898C660.647 170.457 650.928 166.508 647.369 158.077C643.81 149.647 647.759 139.928 656.19 136.369Z" fill="url(#paint2_linear_219_62)"/>
<path d="M356.813 100.921C349.993 100.921 344.464 95.3922 344.464 88.572C344.464 81.7519 349.993 76.223 356.813 76.223C363.633 76.223 369.162 81.7519 369.162 88.572C369.162 95.3922 363.633 100.921 356.813 100.921Z" fill="#EFEFEF" fill-opacity="0.937255"/>
<path d="M209.16 59.268C218.236 59.268 225.595 51.9097 225.595 42.8329C225.595 33.7561 218.236 26.3979 209.16 26.3979C200.083 26.3979 192.725 33.7561 192.725 42.8329C192.725 51.9097 200.083 59.268 209.16 59.268Z" fill="url(#paint3_linear_219_62)"/>
<path d="M444.114 341.2C436.609 341.2 430.525 347.284 430.525 354.789C430.525 362.294 436.609 368.378 444.114 368.378C451.619 368.378 457.703 362.294 457.703 354.789C457.703 347.284 451.619 341.2 444.114 341.2Z" fill="url(#paint4_linear_219_62)"/>
<path d="M192.76 393.358C185.862 393.358 180.27 387.766 180.27 380.868C180.27 373.97 185.862 368.378 192.76 368.378C199.658 368.378 205.25 373.97 205.25 380.868C205.25 387.766 199.658 393.358 192.76 393.358Z" fill="#EFEFEF" fill-opacity="0.937255"/>
<path d="M317.767 334.557C322.244 337.141 323.777 342.866 321.193 347.343C318.608 351.82 312.884 353.353 308.407 350.769C303.93 348.184 302.396 342.46 304.981 337.983C307.565 333.506 313.29 331.972 317.767 334.557Z" fill="#EFEFEF" fill-opacity="0.937255"/>
<path d="M626.457 74.4778L609.432 91.5021C608.812 92.1223 608.812 93.1276 609.432 93.7475C610.052 94.3675 611.057 94.3673 611.678 93.7472L628.702 76.7229C629.322 76.1027 629.322 75.0974 628.702 74.4774C628.082 73.8575 627.077 73.8577 626.457 74.4778Z" fill="#EFEFEF" fill-opacity="0.937255"/>
<path d="M624.791 86.6676L619.882 91.5771C619.262 92.1972 619.261 93.2025 619.881 93.8225C620.501 94.4424 621.507 94.4423 622.127 93.8221L627.036 88.9127C627.656 88.2925 627.657 87.2872 627.037 86.6673C626.417 86.0473 625.411 86.0475 624.791 86.6676Z" fill="#EFEFEF" fill-opacity="0.937255"/>
<path d="M101.386 375.044L86.1525 390.278C85.598 390.832 85.598 391.732 86.1525 392.286L86.1532 392.287C86.7078 392.841 87.6069 392.841 88.1614 392.287L103.395 377.053C103.95 376.498 103.95 375.599 103.395 375.045L103.395 375.044C102.84 374.489 101.941 374.489 101.386 375.044Z" fill="#EFEFEF" fill-opacity="0.937255"/>
<path d="M99.8951 385.95L95.5012 390.344C94.9466 390.898 94.9466 391.798 95.5012 392.352L95.5019 392.353C96.0564 392.907 96.9555 392.907 97.5101 392.353L101.904 387.959C102.459 387.404 102.459 386.505 101.904 385.951L101.903 385.95C101.349 385.395 100.45 385.395 99.8951 385.95Z" fill="#EFEFEF" fill-opacity="0.937255"/>
<path d="M27.5596 78.7866L57.0085 49.3377C58.0809 48.2653 58.0809 46.5267 57.0085 45.4543C55.9361 44.3819 54.1974 44.3819 53.125 45.4543L23.6762 74.9032C22.6038 75.9755 22.6038 77.7142 23.6762 78.7866C24.7485 79.859 26.4872 79.859 27.5596 78.7866Z" fill="#EFEFEF" fill-opacity="0.937255"/>
<path d="M30.4432 57.7017L38.9362 49.2087C40.0086 48.1363 40.0086 46.3976 38.9362 45.3253C37.8638 44.2529 36.1252 44.2529 35.0528 45.3252L26.5597 53.8183C25.4873 54.8907 25.4874 56.6294 26.5597 57.7017C27.6321 58.7741 29.3708 58.7741 30.4432 57.7017Z" fill="#EFEFEF" fill-opacity="0.937255"/>
<path d="M612.41 395.566L633.142 374.834C633.897 374.079 633.897 372.855 633.142 372.1C632.387 371.345 631.163 371.345 630.408 372.1L609.677 392.832C608.922 393.587 608.922 394.811 609.677 395.566C610.432 396.32 611.655 396.32 612.41 395.566Z" fill="#EFEFEF" fill-opacity="0.937255"/>
<path d="M614.44 380.723L620.419 374.744C621.174 373.989 621.174 372.765 620.419 372.01C619.664 371.255 618.441 371.255 617.686 372.01L611.706 377.989C610.951 378.744 610.951 379.968 611.706 380.723C612.461 381.478 613.685 381.478 614.44 380.723Z" fill="#EFEFEF" fill-opacity="0.937255"/>
<path fill-rule="evenodd" clip-rule="evenodd" d="M598.429 13.773H601.733C602.532 13.773 603.175 14.423 603.175 15.215V18.519C603.175 19.318 602.525 19.961 601.733 19.961H598.429C597.637 19.961 596.987 19.311 596.987 18.519V15.215C596.986 15.0256 597.023 14.8379 597.096 14.6627C597.168 14.4876 597.274 14.3285 597.408 14.1945C597.542 14.0605 597.701 13.9543 597.876 13.882C598.052 13.8097 598.239 13.7726 598.429 13.773ZM609.884 13.773H613.188C613.98 13.773 614.63 14.423 614.63 15.215V18.519C614.63 19.318 613.98 19.961 613.188 19.961H609.884C609.092 19.961 608.442 19.311 608.442 18.519V15.215C608.442 14.423 609.092 13.773 609.884 13.773ZM621.347 13.773H624.651C625.444 13.773 626.094 14.423 626.094 15.215V18.519C626.094 19.318 625.444 19.961 624.651 19.961H621.347C620.555 19.961 619.905 19.311 619.905 18.519V15.215C619.904 15.0256 619.941 14.8379 620.014 14.6627C620.086 14.4876 620.192 14.3285 620.326 14.1945C620.46 14.0605 620.619 13.9543 620.794 13.882C620.97 13.8097 621.157 13.7726 621.347 13.773ZM632.803 13.773H636.107C636.899 13.773 637.549 14.423 637.549 15.215V18.519C637.549 19.318 636.899 19.961 636.107 19.961H632.803C632.42 19.9608 632.052 19.809 631.781 19.5388C631.509 19.2687 631.356 18.902 631.354 18.519V15.215C631.358 14.8327 631.512 14.4673 631.783 14.1976C632.054 13.9278 632.42 13.7754 632.803 13.773ZM644.259 13.773H647.563C648.362 13.773 649.012 14.423 649.012 15.215V18.519C649.012 19.318 648.362 19.961 647.563 19.961H644.259C643.467 19.961 642.817 19.311 642.817 18.519V15.215C642.817 14.423 643.467 13.773 644.259 13.773ZM610.304 26.265H613.608C614.401 26.265 615.051 26.915 615.051 27.707V31.018C615.051 31.81 614.401 32.46 613.608 32.46H610.304C609.505 32.46 608.862 31.81 608.862 31.018V27.714C608.861 27.524 608.897 27.3356 608.969 27.1597C609.041 26.9839 609.147 26.824 609.281 26.6893C609.415 26.5546 609.574 26.4477 609.75 26.3749C609.925 26.3021 610.114 26.2648 610.304 26.265ZM621.76 26.265H625.064C625.856 26.265 626.506 26.915 626.506 27.707V31.018C626.506 31.81 625.856 32.46 625.064 32.46H621.76C620.968 32.46 620.318 31.81 620.318 31.018V27.714C620.317 27.524 620.353 27.3356 620.425 27.1597C620.497 26.9839 620.603 26.824 620.737 26.6893C620.871 26.5546 621.03 26.4477 621.206 26.3749C621.381 26.3021 621.57 26.2648 621.76 26.265ZM633.216 26.265H636.52C637.319 26.265 637.969 26.915 637.969 27.707V31.018C637.967 31.401 637.813 31.7677 637.542 32.0378C637.27 32.308 636.903 32.4598 636.52 32.46H633.216C632.424 32.46 631.774 31.81 631.774 31.018V27.714C631.774 26.915 632.424 26.265 633.216 26.265ZM621.347 0.35303H624.651C625.444 0.35303 626.094 1.00303 626.094 1.79503V5.10003C626.094 5.89803 625.444 6.54203 624.651 6.54203H621.347C620.555 6.54203 619.905 5.89203 619.905 5.10003V1.79503C619.904 1.60555 619.941 1.41787 620.014 1.24274C620.086 1.06761 620.192 0.908482 620.326 0.774501C620.46 0.64052 620.619 0.534321 620.794 0.461993C620.97 0.389666 621.157 0.352635 621.347 0.35303ZM632.803 0.35303H636.107C636.899 0.35303 637.549 1.00303 637.549 1.79503V5.10003C637.549 5.89803 636.899 6.54203 636.107 6.54203H632.803C632.42 6.54178 632.052 6.38999 631.781 6.11982C631.509 5.84964 631.356 5.48304 631.354 5.10003V1.79503C631.358 1.41268 631.512 1.04728 631.783 0.777553C632.054 0.507828 632.42 0.355368 632.803 0.35303ZM1.66271 403.313H4.96671C5.76571 403.313 6.4087 403.963 6.4087 404.755V408.059C6.4087 408.858 5.75871 409.501 4.96671 409.501H1.66271C0.870708 409.501 0.220706 408.851 0.220706 408.059V404.755C0.220311 404.566 0.257342 404.378 0.329669 404.203C0.401996 404.028 0.508196 403.868 0.642177 403.734C0.776158 403.601 0.935278 403.494 1.11041 403.422C1.28554 403.35 1.47323 403.313 1.66271 403.313ZM13.1177 403.313H16.4217C17.2147 403.313 17.8647 403.963 17.8647 404.755V408.059C17.8647 408.858 17.2147 409.501 16.4217 409.501H13.1177C12.3257 409.501 11.6757 408.851 11.6757 408.059V404.755C11.6757 403.963 12.3257 403.313 13.1177 403.313ZM24.5807 403.313H27.8857C28.6777 403.313 29.3277 403.963 29.3277 404.755V408.059C29.3277 408.858 28.6777 409.501 27.8857 409.501H24.5807C23.7887 409.501 23.1387 408.851 23.1387 408.059V404.755C23.1385 404.566 23.1756 404.378 23.2479 404.203C23.3203 404.028 23.4265 403.869 23.5605 403.735C23.6944 403.601 23.8535 403.495 24.0286 403.422C24.2036 403.35 24.3913 403.313 24.5807 403.313ZM36.0367 403.313H39.3407C40.1327 403.313 40.7827 403.963 40.7827 404.755V408.059C40.7827 408.858 40.1327 409.501 39.3407 409.501H36.0367C35.6537 409.501 35.2863 409.349 35.0149 409.079C34.7434 408.809 34.5898 408.442 34.5877 408.059V404.755C34.5919 404.373 34.7461 404.007 35.0172 403.738C35.2882 403.468 35.6543 403.315 36.0367 403.313ZM47.4927 403.313H50.7967C51.5957 403.313 52.2457 403.963 52.2457 404.755V408.059C52.2457 408.858 51.5957 409.501 50.7967 409.501H47.4927C46.7007 409.501 46.0507 408.851 46.0507 408.059V404.755C46.0507 403.963 46.7007 403.313 47.4927 403.313ZM13.5387 415.805H16.8427C17.6347 415.805 18.2847 416.455 18.2847 417.247V420.558C18.2847 421.35 17.6347 422 16.8427 422H13.5387C12.7397 422 12.0957 421.35 12.0957 420.558V417.254C12.0948 417.064 12.1314 416.876 12.2035 416.7C12.2757 416.524 12.3818 416.364 12.5159 416.229C12.65 416.095 12.8094 415.988 12.985 415.915C13.1605 415.842 13.3487 415.805 13.5387 415.805ZM24.9937 415.805H28.2977C29.0897 415.805 29.7397 416.455 29.7397 417.247V420.558C29.7397 421.35 29.0897 422 28.2977 422H24.9937C24.2017 422 23.5517 421.35 23.5517 420.558V417.254C23.5505 417.064 23.587 416.876 23.6589 416.7C23.7309 416.524 23.8369 416.364 23.971 416.229C24.105 416.095 24.2644 415.988 24.4399 415.915C24.6155 415.842 24.8037 415.805 24.9937 415.805ZM36.4497 415.805H39.7537C40.5527 415.805 41.2027 416.455 41.2027 417.247V420.558C41.2006 420.941 41.047 421.308 40.7756 421.578C40.5041 421.848 40.1367 422 39.7537 422H36.4497C35.6577 422 35.0077 421.35 35.0077 420.558V417.254C35.0077 416.455 35.6577 415.805 36.4497 415.805ZM24.5817 389.893H27.8857C28.6777 389.893 29.3277 390.543 29.3277 391.336V394.64C29.3277 395.439 28.6777 396.082 27.8857 396.082H24.5817C23.7887 396.082 23.1387 395.432 23.1387 394.64V391.336C23.1383 391.146 23.1754 390.959 23.2477 390.783C23.3201 390.608 23.4264 390.449 23.5605 390.315C23.6945 390.181 23.8538 390.074 24.029 390.002C24.2043 389.93 24.3921 389.893 24.5817 389.893ZM36.0367 389.893H39.3407C40.1327 389.893 40.7827 390.543 40.7827 391.336V394.64C40.7827 395.439 40.1327 396.082 39.3407 396.082H36.0367C35.6537 396.082 35.2863 395.93 35.0149 395.66C34.7434 395.39 34.5898 395.023 34.5877 394.64V391.336C34.5916 390.954 34.7457 390.588 35.0168 390.318C35.2879 390.048 35.6542 389.895 36.0367 389.893Z" fill="#EFEFEF" fill-opacity="0.937255"/>
<path fill-rule="evenodd" clip-rule="evenodd" d="M70.8817 236.922C46.2417 236.922 26.2646 216.663 26.2646 191.676C26.2646 166.689 46.2417 146.431 70.8817 146.431C95.5217 146.431 115.499 166.689 115.499 191.676C115.499 216.663 95.5217 236.922 70.8817 236.922Z" fill="url(#paint5_linear_219_62)"/>
<path d="M88.8574 172.476L70.0094 192.585L58.6934 180.521" stroke="#EFEFEF" stroke-width="7.405" stroke-linecap="round" stroke-linejoin="round"/>
<path d="M51.1777 211.835L70.0257 191.726L81.3417 203.79" stroke="#EFEFEF" stroke-width="7.405" stroke-linecap="round" stroke-linejoin="round"/>
<defs>
<linearGradient id="paint0_linear_219_62" x1="69.0312" y1="234.756" x2="657.268" y2="234.756" gradientUnits="userSpaceOnUse">
<stop stop-color="#2DA44A"/>
<stop offset="0.5" stop-color="#3DD6B3"/>
<stop offset="1" stop-color="#2C7FA3"/>
</linearGradient>
<linearGradient id="paint1_linear_219_62" x1="64.8652" y1="310.545" x2="88.5312" y2="310.545" gradientUnits="userSpaceOnUse">
<stop stop-color="#2DA44A"/>
<stop offset="1" stop-color="#2C7FA3"/>
</linearGradient>
<linearGradient id="paint2_linear_219_62" x1="647.369" y1="158.077" x2="677.898" y2="145.19" gradientUnits="userSpaceOnUse">
<stop stop-color="#2DA44A"/>
<stop offset="1" stop-color="#2C7FA3"/>
</linearGradient>
<linearGradient id="paint3_linear_219_62" x1="192.725" y1="42.833" x2="225.595" y2="42.833" gradientUnits="userSpaceOnUse">
<stop stop-color="#2DA44A"/>
<stop offset="1" stop-color="#2C7FA3"/>
</linearGradient>
<linearGradient id="paint4_linear_219_62" x1="457.703" y1="354.789" x2="430.525" y2="354.789" gradientUnits="userSpaceOnUse">
<stop stop-color="#2DA44A"/>
<stop offset="1" stop-color="#2C7FA3"/>
</linearGradient>
<linearGradient id="paint5_linear_219_62" x1="26.2646" y1="191.677" x2="115.499" y2="191.677" gradientUnits="userSpaceOnUse">
<stop stop-color="#2DA44A"/>
<stop offset="1" stop-color="#2C7FA3"/>
</linearGradient>
</defs>
</svg>
